<svg xmlns="http://www.w3.org/2000/svg" xmlns:xlink="http://www.w3.org/1999/xlink" style="margin:auto;background:transparent;display:block;z-index:1;position:relative" width="1920" height="600" preserveAspectRatio="xMidYMid" viewBox="0 0 1920 600">
<g transform="translate(960,300) scale(-1,-1) translate(-960,-300)"><path id="path0" d="M 1717.2442650649818 100.90163382626976
c 0 32.22394648814392 -7.884582651354363 9.255814416807297 -17.14039706816166 9.255814416807297
S 1682.9634709286584 133.1255803144137 1682.9634709286584 100.90163382626976
s 7.884582651354363 -9.255814416807297 17.14039706816166 -9.255814416807297
S 1717.2442650649818 68.67768733812584 1717.2442650649818 100.90163382626976
z" fill="none" stroke="none"></path>
<circle cx="0" cy="0" r="18.66581028371292" fill="#80ffdb">
  <animateMotion begin="-6.78848027007532s" dur="16.77s" repeatCount="indefinite">
    <mpath xlink:href="#path0"></mpath>
  </animateMotion>
</circle><path id="path1" d="M 1131.2851757278788 319.6282513790497
c 0 34.8310587431298 -8.522493096723249 10.004665809196858 -18.527158905920107 10.004665809196858
S 1094.2308579160388 354.4593101221795 1094.2308579160388 319.6282513790497
s 8.522493096723249 -10.004665809196858 18.527158905920107 -10.004665809196858
S 1131.2851757278788 284.7971926359199 1131.2851757278788 319.6282513790497
z" fill="none" stroke="none"></path>
<circle cx="0" cy="0" r="13.695870976091191" fill="#8c00ff">
  <animateMotion begin="-3.338241944656915s" dur="16.77s" repeatCount="indefinite">
    <mpath xlink:href="#path1"></mpath>
  </animateMotion>
</circle><path id="path2" d="M 1212.718730422504 420.17670838479444
c 0 23.185569537819497 -5.673064886913281 6.6596848672460265 -12.332749754159307 6.6596848672460265
S 1188.0532309141854 443.36227792261394 1188.0532309141854 420.17670838479444
s 5.673064886913281 -6.6596848672460265 12.332749754159307 -6.6596848672460265
S 1212.718730422504 396.99113884697493 1212.718730422504 420.17670838479444
z" fill="none" stroke="none"></path>
<circle cx="0" cy="0" r="12.619530537191391" fill="#8c00ff">
  <animateMotion begin="-13.728692185613465s" dur="16.77s" repeatCount="indefinite">
    <mpath xlink:href="#path2"></mpath>
  </animateMotion>
</circle><path id="path3" d="M 1173.9489026825004 111.14181474010755
c 0 26.971380261156497 -6.599380276665951 7.747098585651334 -14.346478862317284 7.747098585651334
S 1145.2559449578657 138.11319500126405 1145.2559449578657 111.14181474010755
s 6.599380276665951 -7.747098585651334 14.346478862317284 -7.747098585651334
S 1173.9489026825004 84.17043447895105 1173.9489026825004 111.14181474010755
z" fill="none" stroke="none"></path>
<circle cx="0" cy="0" r="11.067754965223314" fill="#ff206e">
  <animateMotion begin="-14.39748173111947s" dur="16.77s" repeatCount="indefinite">
    <mpath xlink:href="#path3"></mpath>
  </animateMotion>
</circle><path id="path4" d="M 1196.2778573263595 126.56141008051554
c 0 36.48550860337487 -8.927305296570447 10.479880130756612 -19.407185427327057 10.479880130756612
S 1157.4634864717054 163.0469186838904 1157.4634864717054 126.56141008051554
s 8.927305296570447 -10.479880130756612 19.407185427327057 -10.479880130756612
S 1196.2778573263595 90.07590147714068 1196.2778573263595 126.56141008051554
z" fill="none" stroke="none"></path>
<circle cx="0" cy="0" r="18.3035944011934" fill="#80ffdb">
  <animateMotion begin="-1.325804957641861s" dur="16.77s" repeatCount="indefinite">
    <mpath xlink:href="#path4"></mpath>
  </animateMotion>
</circle><path id="path5" d="M 1657.9884675731942 272.38908756249015
c 0 20.99628535399519 -5.137388969594568 6.030847920828406 -11.168236890422973 6.030847920828406
S 1635.651993792348 293.3853729164853 1635.651993792348 272.38908756249015
s 5.137388969594568 -6.030847920828406 11.168236890422973 -6.030847920828406
S 1657.9884675731942 251.39280220849497 1657.9884675731942 272.38908756249015
z" fill="none" stroke="none"></path>
<circle cx="0" cy="0" r="13.496249413707323" fill="#8c00ff">
  <animateMotion begin="-12.017609105887159s" dur="16.77s" repeatCount="indefinite">
    <mpath xlink:href="#path5"></mpath>
  </animateMotion>
</circle><path id="path6" d="M 921.2528225009521 499.10095744658247
c 0 25.941447100888475 -6.347375354472711 7.451266720467966 -13.798642074940677 7.451266720467966
S 893.6555383510708 525.0424045474709 893.6555383510708 499.10095744658247
s 6.347375354472711 -7.451266720467966 13.798642074940677 -7.451266720467966
S 921.2528225009521 473.159510345694 921.2528225009521 499.10095744658247
z" fill="none" stroke="none"></path>
<circle cx="0" cy="0" r="19.45662328855545" fill="#fbff12">
  <animateMotion begin="-16.41126905078322s" dur="16.77s" repeatCount="indefinite">
    <mpath xlink:href="#path6"></mpath>
  </animateMotion>
</circle><path id="path7" d="M 1438.1948373127732 96.7914733348288
c 0 20.64370295387359 -5.051118807862687 5.929574252708372 -10.980693060571058 5.929574252708372
S 1416.2334511916313 117.43517628870238 1416.2334511916313 96.7914733348288
s 5.051118807862687 -5.929574252708372 10.980693060571058 -5.929574252708372
S 1438.1948373127732 76.14777038095521 1438.1948373127732 96.7914733348288
z" fill="none" stroke="none"></path>
<circle cx="0" cy="0" r="21.39782461983503" fill="#fbff12">
  <animateMotion begin="-10.745692658602058s" dur="16.77s" repeatCount="indefinite">
    <mpath xlink:href="#path7"></mpath>
  </animateMotion>
</circle><path id="path8" d="M 1534.4803839638123 408.55325242670847
c 0 31.113364487794968 -7.61284450233281 8.936817459260258 -16.549661961593067 8.936817459260258
S 1501.3810600406262 439.66661691450344 1501.3810600406262 408.55325242670847
s 7.61284450233281 -8.936817459260258 16.549661961593067 -8.936817459260258
S 1534.4803839638123 377.4398879389135 1534.4803839638123 408.55325242670847
z" fill="none" stroke="none"></path>
<circle cx="0" cy="0" r="17.866474987432607" fill="#fbff12">
  <animateMotion begin="-7.50418107587845s" dur="16.77s" repeatCount="indefinite">
    <mpath xlink:href="#path8"></mpath>
  </animateMotion>
</circle><path id="path9" d="M 344.628824497562 401.49460922158113
c 0 29.911959088943124 -7.318883606869061 8.591732929802813 -15.910616536671874 8.591732929802813
S 312.8075914242183 431.4065683105243 312.8075914242183 401.49460922158113
s 7.318883606869061 -8.591732929802813 15.910616536671874 -8.591732929802813
S 344.628824497562 371.582650132638 344.628824497562 401.49460922158113
z" fill="none" stroke="none"></path>
<circle cx="0" cy="0" r="15.94181810991652" fill="#ff206e">
  <animateMotion begin="-13.848519751849649s" dur="16.77s" repeatCount="indefinite">
    <mpath xlink:href="#path9"></mpath>
  </animateMotion>
</circle><path id="path10" d="M 516.3271791943686 106.31058441252164
c 0 32.90839157017674 -8.052053256532606 9.452410344625234 -17.504463601157838 9.452410344625234
S 481.31825199205286 139.21897598269837 481.31825199205286 106.31058441252164
s 8.052053256532606 -9.452410344625234 17.504463601157838 -9.452410344625234
S 516.3271791943686 73.4021928423449 516.3271791943686 106.31058441252164
z" fill="none" stroke="none"></path>
<circle cx="0" cy="0" r="16.548947220140406" fill="#fbff12">
  <animateMotion begin="-16.72730954708808s" dur="16.77s" repeatCount="indefinite">
    <mpath xlink:href="#path10"></mpath>
  </animateMotion>
</circle><path id="path11" d="M 618.7444940589236 251.82997167657584
c 0 31.881153712454733 -7.8007078232602 9.157352662088062 -16.958060485348263 9.157352662088062
S 584.8283730882271 283.7111253890306 584.8283730882271 251.82997167657584
s 7.8007078232602 -9.157352662088062 16.958060485348263 -9.157352662088062
S 618.7444940589236 219.9488179641211 618.7444940589236 251.82997167657584
z" fill="none" stroke="none"></path>
<circle cx="0" cy="0" r="17.986017187689242" fill="#fbff12">
  <animateMotion begin="-14.07968752373564s" dur="16.77s" repeatCount="indefinite">
    <mpath xlink:href="#path11"></mpath>
  </animateMotion>
</circle><path id="path12" d="M 1153.7558820556715 82.2220527810017
c 0 33.06981458337096 -8.091550376782255 9.498776529266127 -17.590326906048382 9.498776529266127
S 1118.5752282435747 115.29186736437265 1118.5752282435747 82.2220527810017
s 8.091550376782255 -9.498776529266127 17.590326906048382 -9.498776529266127
S 1153.7558820556715 49.15223819763073 1153.7558820556715 82.2220527810017
z" fill="none" stroke="none"></path>
<circle cx="0" cy="0" r="21.065088481854414" fill="#8c00ff">
  <animateMotion begin="-14.090977411377281s" dur="16.77s" repeatCount="indefinite">
    <mpath xlink:href="#path12"></mpath>
  </animateMotion>
</circle><path id="path13" d="M 871.2744162390175 251.715538454538
c 0 35.48235053555644 -8.681851726785087 10.191738983617277 -18.873590710402365 10.191738983617277
S 833.5272348182127 287.19788899009444 833.5272348182127 251.715538454538
s 8.681851726785087 -10.191738983617277 18.873590710402365 -10.191738983617277
S 871.2744162390175 216.23318791898157 871.2744162390175 251.715538454538
z" fill="none" stroke="none"></path>
<circle cx="0" cy="0" r="14.27149654445652" fill="#8c00ff">
  <animateMotion begin="-0.8539287347331798s" dur="16.77s" repeatCount="indefinite">
    <mpath xlink:href="#path13"></mpath>
  </animateMotion>
</circle><path id="path14" d="M 206.80796617894575 341.4883315259972
c 0 26.67623667762879 -6.527164293462363 7.662323301021035 -14.1894875944834 7.662323301021035
S 178.42899098997893 368.16456820362595 178.42899098997893 341.4883315259972
s 6.527164293462363 -7.662323301021035 14.1894875944834 -7.662323301021035
S 206.80796617894575 314.8120948483684 206.80796617894575 341.4883315259972
z" fill="none" stroke="none"></path>
<circle cx="0" cy="0" r="13.893650041998846" fill="#fbff12">
  <animateMotion begin="-14.041592738662308s" dur="16.77s" repeatCount="indefinite">
    <mpath xlink:href="#path14"></mpath>
  </animateMotion>
</circle><path id="path15" d="M 753.4117161327363 201.63204800395468
c 0 32.05740666433778 -7.843833545529455 9.207978509969363 -17.051812055498818 9.207978509969363
S 719.3080920217387 233.68945466829246 719.3080920217387 201.63204800395468
s 7.843833545529455 -9.207978509969363 17.051812055498818 -9.207978509969363
S 753.4117161327363 169.5746413396169 753.4117161327363 201.63204800395468
z" fill="none" stroke="none"></path>
<circle cx="0" cy="0" r="17.094015947841957" fill="#fbff12">
  <animateMotion begin="-5.84949584799502s" dur="16.77s" repeatCount="indefinite">
    <mpath xlink:href="#path15"></mpath>
  </animateMotion>
</circle><path id="path16" d="M 1598.3208878284354 246.61192699924314
c 0 23.074734169581113 -5.64594559468474 6.627849176369043 -12.273794771053783 6.627849176369043
S 1573.7732982863276 269.68666116882423 1573.7732982863276 246.61192699924314
s 5.64594559468474 -6.627849176369043 12.273794771053783 -6.627849176369043
S 1598.3208878284354 223.53719282966202 1598.3208878284354 246.61192699924314
z" fill="none" stroke="none"></path>
<circle cx="0" cy="0" r="18.454842829282086" fill="#fbff12">
  <animateMotion begin="-3.4490629422583505s" dur="16.77s" repeatCount="indefinite">
    <mpath xlink:href="#path16"></mpath>
  </animateMotion>
</circle><path id="path17" d="M 685.1055571857283 334.258558900888
c 0 21.357545374875848 -5.225782378958984 6.134614097038808 -11.360396475997792 6.134614097038808
S 662.3847642337327 355.6161042757638 662.3847642337327 334.258558900888
s 5.225782378958984 -6.134614097038808 11.360396475997792 -6.134614097038808
S 685.1055571857283 312.90101352601215 685.1055571857283 334.258558900888
z" fill="none" stroke="none"></path>
<circle cx="0" cy="0" r="20.23918431426139" fill="#fbff12">
  <animateMotion begin="-0.13299843324366165s" dur="16.77s" repeatCount="indefinite">
    <mpath xlink:href="#path17"></mpath>
  </animateMotion>
</circle><path id="path18" d="M 794.5219017645287 141.95781398754215
c 0 35.8366361687109 -8.768538637025006 10.29350187824675 -19.062040515271757 10.29350187824675
S 756.3978207339852 177.79445015625305 756.3978207339852 141.95781398754215
s 8.768538637025006 -10.29350187824675 19.062040515271757 -10.29350187824675
S 794.5219017645287 106.12117781883126 794.5219017645287 141.95781398754215
z" fill="none" stroke="none"></path>
<circle cx="0" cy="0" r="12.106237440113043" fill="#80ffdb">
  <animateMotion begin="-8.464783416671773s" dur="16.77s" repeatCount="indefinite">
    <mpath xlink:href="#path18"></mpath>
  </animateMotion>
</circle><path id="path19" d="M 1061.0215184592278 436.1765747264905
c 0 23.95548292948453 -5.86144795083132 6.880830203149812 -12.742278153981133 6.880830203149812
S 1035.5369621512657 460.132057655975 1035.5369621512657 436.1765747264905
s 5.86144795083132 -6.880830203149812 12.742278153981133 -6.880830203149812
S 1061.0215184592278 412.221091797006 1061.0215184592278 436.1765747264905
z" fill="none" stroke="none"></path>
<circle cx="0" cy="0" r="20.11806875420218" fill="#fbff12">
  <animateMotion begin="-9.632932284688016s" dur="16.77s" repeatCount="indefinite">
    <mpath xlink:href="#path19"></mpath>
  </animateMotion>
</circle><path id="path20" d="M 1900.2499960436865 307.48984578274985
c 0 19.02906135468357 -4.656046927209809 5.4657942188984725 -10.121841146108281 5.4657942188984725
S 1880.00631375147 326.5189071374334 1880.00631375147 307.48984578274985
s 4.656046927209809 -5.4657942188984725 10.121841146108281 -5.4657942188984725
S 1900.2499960436865 288.4607844280663 1900.2499960436865 307.48984578274985
z" fill="none" stroke="none"></path>
<circle cx="0" cy="0" r="16.921570886421733" fill="#ff206e">
  <animateMotion begin="-15.523880819087932s" dur="16.77s" repeatCount="indefinite">
    <mpath xlink:href="#path20"></mpath>
  </animateMotion>
</circle><path id="path21" d="M 1698.8329239433124 36.723588758366986
c 0 31.964599546313305 -7.821125420906446 9.181321146281482 -17.002446567187928 9.181321146281482
S 1664.8280308089365 68.6881883046803 1664.8280308089365 36.723588758366986
s 7.821125420906446 -9.181321146281482 17.002446567187928 -9.181321146281482
S 1698.8329239433124 4.758989212053681 1698.8329239433124 36.723588758366986
z" fill="none" stroke="none"></path>
<circle cx="0" cy="0" r="13.711031543383687" fill="#fbff12">
  <animateMotion begin="-1.1045546813493967s" dur="16.77s" repeatCount="indefinite">
    <mpath xlink:href="#path21"></mpath>
  </animateMotion>
</circle><path id="path22" d="M 136.83657758803372 150.76334440047805
c 0 36.6502736850982 -8.967620156992112 10.52720627125161 -19.49482642824372 10.52720627125161
S 97.84692473154627 187.41361808557625 97.84692473154627 150.76334440047805
s 8.967620156992112 -10.52720627125161 19.49482642824372 -10.52720627125161
S 136.83657758803372 114.11307071537985 136.83657758803372 150.76334440047805
z" fill="none" stroke="none"></path>
<circle cx="0" cy="0" r="16.183562603307955" fill="#8c00ff">
  <animateMotion begin="-14.14987124153513s" dur="16.77s" repeatCount="indefinite">
    <mpath xlink:href="#path22"></mpath>
  </animateMotion>
</circle><path id="path23" d="M 1736.3080858996582 573.5020395078251
c 0 35.220536545338526 -8.617790856838148 10.116537092810002 -18.73432794964815 10.116537092810002
S 1698.839430000362 608.7225760531636 1698.839430000362 573.5020395078251
s 8.617790856838148 -10.116537092810002 18.73432794964815 -10.116537092810002
S 1736.3080858996582 538.2815029624866 1736.3080858996582 573.5020395078251
z" fill="none" stroke="none"></path>
<circle cx="0" cy="0" r="20.932715392113924" fill="#fbff12">
  <animateMotion begin="-12.609485942161466s" dur="16.77s" repeatCount="indefinite">
    <mpath xlink:href="#path23"></mpath>
  </animateMotion>
</circle><path id="path24" d="M 975.8607495172782 134.11459882686984
c 0 31.705978900578977 -7.757845901205493 9.107036492719494 -16.864882393924987 9.107036492719494
S 942.1309847294283 165.8205777274488 942.1309847294283 134.11459882686984
s 7.757845901205493 -9.107036492719494 16.864882393924987 -9.107036492719494
S 975.8607495172782 102.40861992629087 975.8607495172782 134.11459882686984
z" fill="none" stroke="none"></path>
<circle cx="0" cy="0" r="17.327044348481014" fill="#8c00ff">
  <animateMotion begin="-11.797533606883215s" dur="16.77s" repeatCount="indefinite">
    <mpath xlink:href="#path24"></mpath>
  </animateMotion>
</circle><path id="path25" d="M 1893.910255540635 96.24512329771547
c 0 27.555576889556125 -6.742322004891392 7.914899744872504 -14.657221749763895 7.914899744872504
S 1864.5958120411071 123.80070018727159 1864.5958120411071 96.24512329771547
s 6.742322004891392 -7.914899744872504 14.657221749763895 -7.914899744872504
S 1893.910255540635 68.68954640815934 1893.910255540635 96.24512329771547
z" fill="none" stroke="none"></path>
<circle cx="0" cy="0" r="19.098508735975134" fill="#80ffdb">
  <animateMotion begin="-6.163438922310832s" dur="16.77s" repeatCount="indefinite">
    <mpath xlink:href="#path25"></mpath>
  </animateMotion>
</circle><path id="path26" d="M 351.91247020524787 425.2538522539092
c 0 20.782191991479603 -5.085004423447136 5.969353018829247 -11.054357442276384 5.969353018829247
S 329.8037553206951 446.0360442453888 329.8037553206951 425.2538522539092
s 5.085004423447136 -5.969353018829247 11.054357442276384 -5.969353018829247
S 351.91247020524787 404.4716602624296 351.91247020524787 425.2538522539092
z" fill="none" stroke="none"></path>
<circle cx="0" cy="0" r="16.946620895855386" fill="#80ffdb">
  <animateMotion begin="-15.843213558759144s" dur="16.77s" repeatCount="indefinite">
    <mpath xlink:href="#path26"></mpath>
  </animateMotion>
</circle><path id="path27" d="M 1524.4326502773233 541.0159047781485
c 0 32.78380773886099 -8.021569978657476 9.416625627119647 -17.43819560577712 9.416625627119647
S 1489.5562590657692 573.7997125170095 1489.5562590657692 541.0159047781485
s 8.021569978657476 -9.416625627119647 17.43819560577712 -9.416625627119647
S 1524.4326502773233 508.2320970392875 1524.4326502773233 541.0159047781485
z" fill="none" stroke="none"></path>
<circle cx="0" cy="0" r="11.297637254871178" fill="#fbff12">
  <animateMotion begin="-4.4353702498202985s" dur="16.77s" repeatCount="indefinite">
    <mpath xlink:href="#path27"></mpath>
  </animateMotion>
</circle><path id="path28" d="M 365.13461195264165 105.006978417542
c 0 23.341476710650852 -5.7112123866486115 6.7044667147614145 -12.415679101410026 6.7044667147614145
S 340.3032537498216 128.34845512819285 340.3032537498216 105.006978417542
s 5.7112123866486115 -6.7044667147614145 12.415679101410026 -6.7044667147614145
S 365.13461195264165 81.66550170689115 365.13461195264165 105.006978417542
z" fill="none" stroke="none"></path>
<circle cx="0" cy="0" r="18.109108252555522" fill="#80ffdb">
  <animateMotion begin="-6.333639517484081s" dur="16.77s" repeatCount="indefinite">
    <mpath xlink:href="#path28"></mpath>
  </animateMotion>
</circle><path id="path29" d="M 1651.6549487752527 524.0136806382496
c 0 31.850683797665546 -7.7932524185777385 9.148600665286912 -16.94185308386465 9.148600665286912
S 1617.7712426075236 555.8643644359151 1617.7712426075236 524.0136806382496
s 7.7932524185777385 -9.148600665286912 16.94185308386465 -9.148600665286912
S 1651.6549487752527 492.16299684058407 1651.6549487752527 524.0136806382496
z" fill="none" stroke="none"></path>
<circle cx="0" cy="0" r="11.132140582754806" fill="#8c00ff">
  <animateMotion begin="-7.967868003491823s" dur="16.77s" repeatCount="indefinite">
    <mpath xlink:href="#path29"></mpath>
  </animateMotion>
</circle><path id="path30" d="M 1737.9854516132928 193.60106758272732
c 0 20.042196759132494 -4.90394176021327 5.7568011967721 -10.66074295698537 5.7568011967721
S 1716.663965699322 213.64326434185983 1716.663965699322 193.60106758272732
s 4.90394176021327 -5.7568011967721 10.66074295698537 -5.7568011967721
S 1737.9854516132928 173.55887082359482 1737.9854516132928 193.60106758272732
z" fill="none" stroke="none"></path>
<circle cx="0" cy="0" r="17.40838179213773" fill="#fbff12">
  <animateMotion begin="-0.22128606840481732s" dur="16.77s" repeatCount="indefinite">
    <mpath xlink:href="#path30"></mpath>
  </animateMotion>
</circle><path id="path31" d="M 1523.6422446210515 203.55264114102164
c 0 20.59979392910396 -5.04037511031267 5.916962086019223 -10.957337196331894 5.916962086019223
S 1501.7275702283875 224.1524350701256 1501.7275702283875 203.55264114102164
s 5.04037511031267 -5.916962086019223 10.957337196331894 -5.916962086019223
S 1523.6422446210515 182.95284721191769 1523.6422446210515 203.55264114102164
z" fill="none" stroke="none"></path>
<circle cx="0" cy="0" r="13.819563676378925" fill="#ff206e">
  <animateMotion begin="-11.766977118870363s" dur="16.77s" repeatCount="indefinite">
    <mpath xlink:href="#path31"></mpath>
  </animateMotion>
</circle><path id="path32" d="M 1197.7152174810856 405.75616190185775
c 0 34.165160649165344 -8.359560584370243 9.813397207738982 -18.172957792109223 9.813397207738982
S 1161.3693018968672 439.9213225510231 1161.3693018968672 405.75616190185775
s 8.359560584370243 -9.813397207738982 18.172957792109223 -9.813397207738982
S 1197.7152174810856 371.5910012526924 1197.7152174810856 405.75616190185775
z" fill="none" stroke="none"></path>
<circle cx="0" cy="0" r="15.734417265519985" fill="#8c00ff">
  <animateMotion begin="-12.373183031162252s" dur="16.77s" repeatCount="indefinite">
    <mpath xlink:href="#path32"></mpath>
  </animateMotion>
</circle><path id="path33" d="M 1241.7550157884557 175.12700163720032
c 0 28.510181630601036 -6.975895505359826 8.189094723683276 -15.164990229043102 8.189094723683276
S 1211.4250353303696 203.63718326780136 1211.4250353303696 175.12700163720032
s 6.975895505359826 -8.189094723683276 15.164990229043102 -8.189094723683276
S 1241.7550157884557 146.61682000659928 1241.7550157884557 175.12700163720032
z" fill="none" stroke="none"></path>
<circle cx="0" cy="0" r="13.503766458584343" fill="#80ffdb">
  <animateMotion begin="-10.198766484308774s" dur="16.77s" repeatCount="indefinite">
    <mpath xlink:href="#path33"></mpath>
  </animateMotion>
</circle><path id="path34" d="M 207.1461258087796 574.8643628387352
c 0 36.74370303570576 -8.99048053001311 10.55404236131974 -19.54452289133285 10.55404236131974
S 168.05708002611388 611.608065874441 168.05708002611388 574.8643628387352
s 8.99048053001311 -10.55404236131974 19.54452289133285 -10.55404236131974
S 207.1461258087796 538.1206598030295 207.1461258087796 574.8643628387352
z" fill="none" stroke="none"></path>
<circle cx="0" cy="0" r="20.654444152241787" fill="#ff206e">
  <animateMotion begin="-16.150338867996204s" dur="16.77s" repeatCount="indefinite">
    <mpath xlink:href="#path34"></mpath>
  </animateMotion>
</circle><path id="path35" d="M 830.9542124765328 414.7128270454862
c 0 36.74482444952751 -8.990754918501413 10.554364469545138 -19.54511938804655 10.554364469545138
S 791.8639737004396 451.45765149501375 791.8639737004396 414.7128270454862
s 8.990754918501413 -10.554364469545138 19.54511938804655 -10.554364469545138
S 830.9542124765328 377.9680025959587 830.9542124765328 414.7128270454862
z" fill="none" stroke="none"></path>
<circle cx="0" cy="0" r="14.791619321232508" fill="#80ffdb">
  <animateMotion begin="-5.399833579408773s" dur="16.77s" repeatCount="indefinite">
    <mpath xlink:href="#path35"></mpath>
  </animateMotion>
</circle><path id="path36" d="M 1567.0343849454462 429.28149272861583
c 0 27.956819207928916 -6.840498316833671 8.030150198022136 -14.870648514855807 8.030150198022136
S 1537.2930879157348 457.23831193654473 1537.2930879157348 429.28149272861583
s 6.840498316833671 -8.030150198022136 14.870648514855807 -8.030150198022136
S 1567.0343849454462 401.32467352068693 1567.0343849454462 429.28149272861583
z" fill="none" stroke="none"></path>
<circle cx="0" cy="0" r="20.030688578606988" fill="#fbff12">
  <animateMotion begin="-3.325943571613706s" dur="16.77s" repeatCount="indefinite">
    <mpath xlink:href="#path36"></mpath>
  </animateMotion>
</circle><path id="path37" d="M 1627.4614686312339 305.13013850961573
c 0 36.62169575463438 -8.960627684644582 10.518997716756685 -19.479625401401265 10.518997716756685
S 1588.5022178284312 341.75183426425014 1588.5022178284312 305.13013850961573
s 8.960627684644582 -10.518997716756685 19.479625401401265 -10.518997716756685
S 1627.4614686312339 268.50844275498133 1627.4614686312339 305.13013850961573
z" fill="none" stroke="none"></path>
<circle cx="0" cy="0" r="13.095674133531915" fill="#ff206e">
  <animateMotion begin="-14.782228732406761s" dur="16.77s" repeatCount="indefinite">
    <mpath xlink:href="#path37"></mpath>
  </animateMotion>
</circle><path id="path38" d="M 1787.3854218781792 543.1819869858864
c 0 24.19695891473831 -5.9205325004146925 6.950190326573771 -12.870722826988462 6.950190326573771
S 1761.6439762242023 567.3789459006247 1761.6439762242023 543.1819869858864
s 5.9205325004146925 -6.950190326573771 12.870722826988462 -6.950190326573771
S 1787.3854218781792 518.9850280711481 1787.3854218781792 543.1819869858864
z" fill="none" stroke="none"></path>
<circle cx="0" cy="0" r="13.158339337098882" fill="#fbff12">
  <animateMotion begin="-15.073649711519879s" dur="16.77s" repeatCount="indefinite">
    <mpath xlink:href="#path38"></mpath>
  </animateMotion>
</circle><path id="path39" d="M 932.248445625448 363.80919216560346
c 0 22.581033737974778 -5.525146552908722 6.4860416055884995 -12.011188158497221 6.4860416055884995
S 908.2260693084535 386.39022590357825 908.2260693084535 363.80919216560346
s 5.525146552908722 -6.4860416055884995 12.011188158497221 -6.4860416055884995
S 932.248445625448 341.22815842762867 932.248445625448 363.80919216560346
z" fill="none" stroke="none"></path>
<circle cx="0" cy="0" r="17.737811911894312" fill="#8c00ff">
  <animateMotion begin="-4.3447757593389795s" dur="16.77s" repeatCount="indefinite">
    <mpath xlink:href="#path39"></mpath>
  </animateMotion>
</circle><path id="path40" d="M 409.2072631584263 469.861485508823
c 0 34.09400965072162 -8.34215129751699 9.792960218824295 -18.135111516341283 9.792960218824295
S 372.93704012574375 503.9554951595446 372.93704012574375 469.861485508823
s 8.34215129751699 -9.792960218824295 18.135111516341283 -9.792960218824295
S 409.2072631584263 435.7674758581014 409.2072631584263 469.861485508823
z" fill="none" stroke="none"></path>
<circle cx="0" cy="0" r="13.376305280709422" fill="#ff206e">
  <animateMotion begin="-12.595292785691957s" dur="16.77s" repeatCount="indefinite">
    <mpath xlink:href="#path40"></mpath>
  </animateMotion>
</circle><path id="path41" d="M 149.38027015175382 346.67563815603484
c 0 32.555720324030105 -7.965761355879705 9.351111156902263 -17.31687251278197 9.351111156902263
S 114.74652512618988 379.23135848006496 114.74652512618988 346.67563815603484
s 7.965761355879705 -9.351111156902263 17.31687251278197 -9.351111156902263
S 149.38027015175382 314.1199178320047 149.38027015175382 346.67563815603484
z" fill="none" stroke="none"></path>
<circle cx="0" cy="0" r="12.043781722690913" fill="#80ffdb">
  <animateMotion begin="-2.1162786691056605s" dur="16.77s" repeatCount="indefinite">
    <mpath xlink:href="#path41"></mpath>
  </animateMotion>
</circle><path id="path42" d="M 643.6132525312108 222.48634508070745
c 0 20.445953447271805 -5.0027332902899095 5.872773862514242 -10.87550715280415 5.872773862514242
S 621.8622382256025 242.93229852797924 621.8622382256025 222.48634508070745
s 5.0027332902899095 -5.872773862514242 10.87550715280415 -5.872773862514242
S 643.6132525312108 202.04039163343566 643.6132525312108 222.48634508070745
z" fill="none" stroke="none"></path>
<circle cx="0" cy="0" r="19.12389892609399" fill="#ff206e">
  <animateMotion begin="-9.162294567805917s" dur="16.77s" repeatCount="indefinite">
    <mpath xlink:href="#path42"></mpath>
  </animateMotion>
</circle><path id="path43" d="M 238.39440294683732 297.52187936205047
c 0 26.523281455762106 -6.489739079601366 7.618389354314648 -14.108128433916015 7.618389354314648
S 210.17814607900527 324.0451608178126 210.17814607900527 297.52187936205047
s 6.489739079601366 -7.618389354314648 14.108128433916015 -7.618389354314648
S 238.39440294683732 270.99859790628835 238.39440294683732 297.52187936205047
z" fill="none" stroke="none"></path>
<circle cx="0" cy="0" r="11.450756452797968" fill="#ff206e">
  <animateMotion begin="-8.644628047026803s" dur="16.77s" repeatCount="indefinite">
    <mpath xlink:href="#path43"></mpath>
  </animateMotion>
</circle><path id="path44" d="M 871.3320139575299 565.5750607413671
c 0 24.444774894991028 -5.981168325370144 7.02137151239104 -13.002539837761184 7.02137151239104
S 845.3269342820074 590.0198356363582 845.3269342820074 565.5750607413671
s 5.981168325370144 -7.02137151239104 13.002539837761184 -7.02137151239104
S 871.3320139575299 541.1302858463761 871.3320139575299 565.5750607413671
z" fill="none" stroke="none"></path>
<circle cx="0" cy="0" r="16.424400513610284" fill="#8c00ff">
  <animateMotion begin="-2.6591991227810867s" dur="16.77s" repeatCount="indefinite">
    <mpath xlink:href="#path44"></mpath>
  </animateMotion>
</circle><path id="path45" d="M 892.5669065470053 52.194083301973514
c 0 35.1587849209574 -8.602681416830002 10.098799924104785 -18.701481340934787 10.098799924104785
S 855.1639438651356 87.35286822293091 855.1639438651356 52.194083301973514
s 8.602681416830002 -10.098799924104785 18.701481340934787 -10.098799924104785
S 892.5669065470053 17.035298381016112 892.5669065470053 52.194083301973514
z" fill="none" stroke="none"></path>
<circle cx="0" cy="0" r="21.027403536396903" fill="#8c00ff">
  <animateMotion begin="-15.941223688963557s" dur="16.77s" repeatCount="indefinite">
    <mpath xlink:href="#path45"></mpath>
  </animateMotion>
</circle><path id="path46" d="M 863.361946344699 532.0330444229982
c 0 28.290955440514928 -6.922255054594077 8.126125498871309 -15.048380553465385 8.126125498871309
S 833.2651852377684 560.3239998635131 833.2651852377684 532.0330444229982
s 6.922255054594077 -8.126125498871309 15.048380553465385 -8.126125498871309
S 863.361946344699 503.7420889824832 863.361946344699 532.0330444229982
z" fill="none" stroke="none"></path>
<circle cx="0" cy="0" r="15.613776514840122" fill="#fbff12">
  <animateMotion begin="-6.984218637323547s" dur="16.77s" repeatCount="indefinite">
    <mpath xlink:href="#path46"></mpath>
  </animateMotion>
</circle><path id="path47" d="M 1254.4011038545964 560.6094952430359
c 0 37.49432006216913 -9.174142142871169 10.76964512424007 -19.94378726711124 10.76964512424007
S 1214.513529320374 598.103815305205 1214.513529320374 560.6094952430359
s 9.174142142871169 -10.76964512424007 19.94378726711124 -10.76964512424007
S 1254.4011038545964 523.1151751808668 1254.4011038545964 560.6094952430359
z" fill="none" stroke="none"></path>
<circle cx="0" cy="0" r="19.558748405857106" fill="#80ffdb">
  <animateMotion begin="-6.0574356562940315s" dur="16.77s" repeatCount="indefinite">
    <mpath xlink:href="#path47"></mpath>
  </animateMotion>
</circle><path id="path48" d="M 1090.0069086182618 136.11692704393715
c 0 28.292457746834145 -6.922622640182822 8.126557012388531 -15.049179652571354 8.126557012388531
S 1059.908549313119 164.4093847907713 1059.908549313119 136.11692704393715
s 6.922622640182822 -8.126557012388531 15.049179652571354 -8.126557012388531
S 1090.0069086182618 107.82446929710301 1090.0069086182618 136.11692704393715
z" fill="none" stroke="none"></path>
<circle cx="0" cy="0" r="15.806285155287688" fill="#fbff12">
  <animateMotion begin="-2.7808765655263903s" dur="16.77s" repeatCount="indefinite">
    <mpath xlink:href="#path48"></mpath>
  </animateMotion>
</circle><path id="path49" d="M 1568.6910420947165 382.4511943428248
c 0 33.99703625748088 -8.318423765128298 9.765106159063656 -18.083529924191954 9.765106159063656
S 1532.5239822463327 416.4482306003057 1532.5239822463327 382.4511943428248
s 8.318423765128298 -9.765106159063656 18.083529924191954 -9.765106159063656
S 1568.6910420947165 348.4541580853439 1568.6910420947165 382.4511943428248
z" fill="none" stroke="none"></path>
<circle cx="0" cy="0" r="12.673754146029445" fill="#80ffdb">
  <animateMotion begin="-7.281171002698208s" dur="16.77s" repeatCount="indefinite">
    <mpath xlink:href="#path49"></mpath>
  </animateMotion>
</circle><path id="path50" d="M 701.8720757738155 123.71192384430212
c 0 26.586622005753355 -6.5052372992800755 7.636582916546177 -14.141820215826254 7.636582916546177
S 673.588435342163 150.29854585005546 673.588435342163 123.71192384430212
s 6.5052372992800755 -7.636582916546177 14.141820215826254 -7.636582916546177
S 701.8720757738155 97.12530183854876 701.8720757738155 123.71192384430212
z" fill="none" stroke="none"></path>
<circle cx="0" cy="0" r="14.410472808866007" fill="#8c00ff">
  <animateMotion begin="-7.495019152608116s" dur="16.77s" repeatCount="indefinite">
    <mpath xlink:href="#path50"></mpath>
  </animateMotion>
</circle><path id="path51" d="M 694.6388913309572 284.27785860883034
c 0 29.342175049327604 -7.17946836313335 8.42807155672176 -15.607539919855109 8.42807155672176
S 663.4238114912471 313.6200336581579 663.4238114912471 284.27785860883034
s 7.17946836313335 -8.42807155672176 15.607539919855109 -8.42807155672176
S 694.6388913309572 254.93568355950273 694.6388913309572 284.27785860883034
z" fill="none" stroke="none"></path>
<circle cx="0" cy="0" r="20.5836212681864" fill="#8c00ff">
  <animateMotion begin="-7.676645458258044s" dur="16.77s" repeatCount="indefinite">
    <mpath xlink:href="#path51"></mpath>
  </animateMotion>
</circle><path id="path52" d="M 370.76723360294875 551.3321696886205
c 0 25.40653524407678 -6.216492666103893 7.29762182542631 -13.514114491530202 7.29762182542631
S 343.7390046198883 576.7387049326973 343.7390046198883 551.3321696886205
s 6.216492666103893 -7.29762182542631 13.514114491530202 -7.29762182542631
S 370.76723360294875 525.9256344445438 370.76723360294875 551.3321696886205
z" fill="none" stroke="none"></path>
<circle cx="0" cy="0" r="16.177611457386487" fill="#fbff12">
  <animateMotion begin="-16.212769745809748s" dur="16.77s" repeatCount="indefinite">
    <mpath xlink:href="#path52"></mpath>
  </animateMotion>
</circle><path id="path53" d="M 1618.244366738548 131.19526746769546
c 0 27.008599120533432 -6.608487018853924 7.75778910908939 -14.366276127943314 7.75778910908939
S 1589.5118144826613 158.2038665882289 1589.5118144826613 131.19526746769546
s 6.608487018853924 -7.75778910908939 14.366276127943314 -7.75778910908939
S 1618.244366738548 104.18666834716203 1618.244366738548 131.19526746769546
z" fill="none" stroke="none"></path>
<circle cx="0" cy="0" r="18.000145378780566" fill="#ff206e">
  <animateMotion begin="-9.79727319719943s" dur="16.77s" repeatCount="indefinite">
    <mpath xlink:href="#path53"></mpath>
  </animateMotion>
</circle><path id="path54" d="M 1832.843301519585 245.94038720347095
c 0 19.971397581990168 -4.886618557295466 5.736465262912069 -10.623083820207535 5.736465262912069
S 1811.59713387917 265.9117847854611 1811.59713387917 245.94038720347095
s 4.886618557295466 -5.736465262912069 10.623083820207535 -5.736465262912069
S 1832.843301519585 225.96898962148077 1832.843301519585 245.94038720347095
z" fill="none" stroke="none"></path>
<circle cx="0" cy="0" r="20.95284636237445" fill="#80ffdb">
  <animateMotion begin="-6.921469707447108s" dur="16.77s" repeatCount="indefinite">
    <mpath xlink:href="#path54"></mpath>
  </animateMotion>
</circle><path id="path55" d="M 685.9426449465716 499.10479566571644
c 0 19.548549379623143 -4.783155699269492 5.615008864359839 -10.398164563629331 5.615008864359839
S 665.146315819313 518.6533450453396 665.146315819313 499.10479566571644
s 4.783155699269492 -5.615008864359839 10.398164563629331 -5.615008864359839
S 685.9426449465716 479.5562462860933 685.9426449465716 499.10479566571644
z" fill="none" stroke="none"></path>
<circle cx="0" cy="0" r="19.221424321346355" fill="#ff206e">
  <animateMotion begin="-12.518503858763323s" dur="16.77s" repeatCount="indefinite">
    <mpath xlink:href="#path55"></mpath>
  </animateMotion>
</circle><path id="path56" d="M 1072.8294652721604 80.36600375489014
c 0 24.02354881313133 -5.878102369170431 6.900381042069638 -12.77848341124007 6.900381042069638
S 1047.2724984496801 104.38955256802147 1047.2724984496801 80.36600375489014
s 5.878102369170431 -6.900381042069638 12.77848341124007 -6.900381042069638
S 1072.8294652721604 56.34245494175882 1072.8294652721604 80.36600375489014
z" fill="none" stroke="none"></path>
<circle cx="0" cy="0" r="13.178653858555082" fill="#fbff12">
  <animateMotion begin="-13.979527258478974s" dur="16.77s" repeatCount="indefinite">
    <mpath xlink:href="#path56"></mpath>
  </animateMotion>
</circle><path id="path57" d="M 342.9512929169509 347.5355398265627
c 0 29.732390762946615 -7.274946676040129 8.540154793612325 -15.815101469652454 8.540154793612325
S 311.32108997764595 377.2679305895093 311.32108997764595 347.5355398265627
s 7.274946676040129 -8.540154793612325 15.815101469652454 -8.540154793612325
S 342.9512929169509 317.80314906361605 342.9512929169509 347.5355398265627
z" fill="none" stroke="none"></path>
<circle cx="0" cy="0" r="15.246716937077972" fill="#fbff12">
  <animateMotion begin="-6.230628759208375s" dur="16.77s" repeatCount="indefinite">
    <mpath xlink:href="#path57"></mpath>
  </animateMotion>
</circle><path id="path58" d="M 1337.699821961591 488.43295469596933
c 0 27.89849741369198 -6.826228090584207 8.013398193294506 -14.839626283878713 8.013398193294506
S 1308.0205693938335 516.3314521096613 1308.0205693938335 488.43295469596933
s 6.826228090584207 -8.013398193294506 14.839626283878713 -8.013398193294506
S 1337.699821961591 460.53445728227734 1337.699821961591 488.43295469596933
z" fill="none" stroke="none"></path>
<circle cx="0" cy="0" r="15.778866261916098" fill="#80ffdb">
  <animateMotion begin="-7.921617616413226s" dur="16.77s" repeatCount="indefinite">
    <mpath xlink:href="#path58"></mpath>
  </animateMotion>
</circle><path id="path59" d="M 179.9486788626462 154.28985529287976
c 0 19.375705276322066 -4.740864056972419 5.565362153837189 -10.306226210809609 5.565362153837189
S 159.336226441027 173.66556056920183 159.336226441027 154.28985529287976
s 4.740864056972419 -5.565362153837189 10.306226210809609 -5.565362153837189
S 179.9486788626462 134.9141500165577 179.9486788626462 154.28985529287976
z" fill="none" stroke="none"></path>
<circle cx="0" cy="0" r="10.878294462074681" fill="#80ffdb">
  <animateMotion begin="-13.909037036568279s" dur="16.77s" repeatCount="indefinite">
    <mpath xlink:href="#path59"></mpath>
  </animateMotion>
</circle><path id="path60" d="M 1494.2046012492399 142.55778869023112
c 0 28.127307118888343 -6.882213443983318 8.079120129893461 -14.961333573876779 8.079120129893461
S 1464.2819341014863 170.68509580911947 1464.2819341014863 142.55778869023112
s 6.882213443983318 -8.079120129893461 14.961333573876779 -8.079120129893461
S 1494.2046012492399 114.43048157134278 1494.2046012492399 142.55778869023112
z" fill="none" stroke="none"></path>
<circle cx="0" cy="0" r="17.426664746920324" fill="#fbff12">
  <animateMotion begin="-7.540910308243833s" dur="16.77s" repeatCount="indefinite">
    <mpath xlink:href="#path60"></mpath>
  </animateMotion>
</circle><path id="path61" d="M 662.9250967919545 475.74832141029526
c 0 24.779280448439852 -6.06301542887358 7.1174528947646385 -13.18046832363822 7.1174528947646385
S 636.564160144678 500.5276018587351 636.564160144678 475.74832141029526
s 6.06301542887358 -7.1174528947646385 13.18046832363822 -7.1174528947646385
S 662.9250967919545 450.9690409618554 662.9250967919545 475.74832141029526
z" fill="none" stroke="none"></path>
<circle cx="0" cy="0" r="16.28267919174367" fill="#80ffdb">
  <animateMotion begin="-10.423410932516614s" dur="16.77s" repeatCount="indefinite">
    <mpath xlink:href="#path61"></mpath>
  </animateMotion>
</circle><path id="path62" d="M 769.9132108369878 379.7884917123474
c 0 36.26298539757239 -8.872858129193245 10.41596389079207 -19.288822019985318 10.41596389079207
S 731.3355667970171 416.0514771099198 731.3355667970171 379.7884917123474
s 8.872858129193245 -10.41596389079207 19.288822019985318 -10.41596389079207
S 769.9132108369878 343.52550631477504 769.9132108369878 379.7884917123474
z" fill="none" stroke="none"></path>
<circle cx="0" cy="0" r="18.818009713248017" fill="#8c00ff">
  <animateMotion begin="-14.69750608679724s" dur="16.77s" repeatCount="indefinite">
    <mpath xlink:href="#path62"></mpath>
  </animateMotion>
</circle><path id="path63" d="M 517.9230851980076 171.34954858954498
c 0 29.327802801492957 -7.1759517493014675 8.423943357875636 -15.599895107177105 8.423943357875636
S 486.7232949836533 200.67735139103794 486.7232949836533 171.34954858954498
s 7.1759517493014675 -8.423943357875636 15.599895107177105 -8.423943357875636
S 517.9230851980076 142.02174578805202 517.9230851980076 171.34954858954498
z" fill="none" stroke="none"></path>
<circle cx="0" cy="0" r="18.98049857316742" fill="#fbff12">
  <animateMotion begin="-9.399904385578747s" dur="16.77s" repeatCount="indefinite">
    <mpath xlink:href="#path63"></mpath>
  </animateMotion>
</circle><path id="path64" d="M 761.8926068735132 466.3617350155114
c 0 20.607396118357173 -5.042235220449094 5.919145693570677 -10.961380914019772 5.919145693570677
S 739.9698450454737 486.9691311338686 739.9698450454737 466.3617350155114
s 5.042235220449094 -5.919145693570677 10.961380914019772 -5.919145693570677
S 761.8926068735132 445.7543388971542 761.8926068735132 466.3617350155114
z" fill="none" stroke="none"></path>
<circle cx="0" cy="0" r="16.469510063828142" fill="#80ffdb">
  <animateMotion begin="-1.3948073092893836s" dur="16.77s" repeatCount="indefinite">
    <mpath xlink:href="#path64"></mpath>
  </animateMotion>
</circle><path id="path65" d="M 481.4688714016556 428.1771834614581
c 0 32.533476200183046 -7.960318644725638 9.344721887286621 -17.30504053201226 9.344721887286621
S 446.8587903376311 460.71065966164116 446.8587903376311 428.1771834614581
s 7.960318644725638 -9.344721887286621 17.30504053201226 -9.344721887286621
S 481.4688714016556 395.6437072612751 481.4688714016556 428.1771834614581
z" fill="none" stroke="none"></path>
<circle cx="0" cy="0" r="13.918779592855934" fill="#ff206e">
  <animateMotion begin="-12.08030042434814s" dur="16.77s" repeatCount="indefinite">
    <mpath xlink:href="#path65"></mpath>
  </animateMotion>
</circle><path id="path66" d="M 1112.7484561095491 23.206310805136617
c 0 34.11290625772225 -8.346774935400123 9.798387967643626 -18.14516290304375 9.798387967643626
S 1076.4581303034618 57.31921706285887 1076.4581303034618 23.206310805136617
s 8.346774935400123 -9.798387967643626 18.14516290304375 -9.798387967643626
S 1112.7484561095491 -10.906595452585634 1112.7484561095491 23.206310805136617
z" fill="none" stroke="none"></path>
<circle cx="0" cy="0" r="20.271411343684598" fill="#8c00ff">
  <animateMotion begin="-9.827347408439554s" dur="16.77s" repeatCount="indefinite">
    <mpath xlink:href="#path66"></mpath>
  </animateMotion>
</circle><path id="path67" d="M 700.4485622377616 279.45651555340675
c 0 32.78729816120382 -8.022424018166891 9.417628195239395 -17.440052213406286 9.417628195239395
S 665.5684578109491 312.24381371461055 665.5684578109491 279.45651555340675
s 8.022424018166891 -9.417628195239395 17.440052213406286 -9.417628195239395
S 700.4485622377616 246.66921739220294 700.4485622377616 279.45651555340675
z" fill="none" stroke="none"></path>
<circle cx="0" cy="0" r="16.66985756192516" fill="#8c00ff">
  <animateMotion begin="-2.474571282237916s" dur="16.77s" repeatCount="indefinite">
    <mpath xlink:href="#path67"></mpath>
  </animateMotion>
</circle><path id="path68" d="M 1774.306944542281 357.50522005387296
c 0 19.808227087229884 -4.8466938617690145 5.6895971420766696 -10.536291003845683 5.6895971420766696
S 1753.2343625345895 377.31344714110287 1753.2343625345895 357.50522005387296
s 4.8466938617690145 -5.6895971420766696 10.536291003845683 -5.6895971420766696
S 1774.306944542281 337.69699296664305 1774.306944542281 357.50522005387296
z" fill="none" stroke="none"></path>
<circle cx="0" cy="0" r="15.352168994078083" fill="#80ffdb">
  <animateMotion begin="-7.308289508199927s" dur="16.77s" repeatCount="indefinite">
    <mpath xlink:href="#path68"></mpath>
  </animateMotion>
</circle><path id="path69" d="M 434.95894115411033 545.4752483739661
c 0 33.290802945551114 -8.145621997315699 9.562251909892343 -17.70787390720804 9.562251909892343
S 399.5431933396943 578.7660513195173 399.5431933396943 545.4752483739661
s 8.145621997315699 -9.562251909892343 17.70787390720804 -9.562251909892343
S 434.95894115411033 512.184445428415 434.95894115411033 545.4752483739661
z" fill="none" stroke="none"></path>
<circle cx="0" cy="0" r="18.428816825777407" fill="#ff206e">
  <animateMotion begin="-10.645948093704334s" dur="16.77s" repeatCount="indefinite">
    <mpath xlink:href="#path69"></mpath>
  </animateMotion>
</circle><path id="path70" d="M 1179.9535913644677 125.12347691957302
c 0 31.146966590611445 -7.62106629344748 8.946469127090522 -16.567535420538 8.946469127090522
S 1146.8185205233917 156.27044351018446 1146.8185205233917 125.12347691957302
s 7.62106629344748 -8.946469127090522 16.567535420538 -8.946469127090522
S 1179.9535913644677 93.97651032896158 1179.9535913644677 125.12347691957302
z" fill="none" stroke="none"></path>
<circle cx="0" cy="0" r="14.17955212755038" fill="#ff206e">
  <animateMotion begin="-12.494879711633537s" dur="16.77s" repeatCount="indefinite">
    <mpath xlink:href="#path70"></mpath>
  </animateMotion>
</circle><path id="path71" d="M 797.4113887557778 271.1006574120244
c 0 25.7925853197059 -6.310951727162081 7.408508549277227 -13.719460276439309 7.408508549277227
S 769.9724682028991 296.8932427317303 769.9724682028991 271.1006574120244
s 6.310951727162081 -7.408508549277227 13.719460276439309 -7.408508549277227
S 797.4113887557778 245.30807209231853 797.4113887557778 271.1006574120244
z" fill="none" stroke="none"></path>
<circle cx="0" cy="0" r="15.737952181432599" fill="#80ffdb">
  <animateMotion begin="-15.627125679336775s" dur="16.77s" repeatCount="indefinite">
    <mpath xlink:href="#path71"></mpath>
  </animateMotion>
</circle><path id="path72" d="M 191.26394866898735 44.451414793442986
c 0 32.72436882011928 -8.00702641343344 9.399552746204476 -17.406579159637914 9.399552746204476
S 156.45079034971153 77.17578361356226 156.45079034971153 44.451414793442986
s 8.00702641343344 -9.399552746204476 17.406579159637914 -9.399552746204476
S 191.26394866898735 11.727045973323705 191.26394866898735 44.451414793442986
z" fill="none" stroke="none"></path>
<circle cx="0" cy="0" r="21.000025986490485" fill="#8c00ff">
  <animateMotion begin="-14.48660405236604s" dur="16.77s" repeatCount="indefinite">
    <mpath xlink:href="#path72"></mpath>
  </animateMotion>
</circle><path id="path73" d="M 69.98978742504084 155.33887401329747
c 0 25.15100649011735 -6.153969673113819 7.224225268437963 -13.378194941551783 7.224225268437963
S 43.23339754193728 180.4898805034148 43.23339754193728 155.33887401329747
s 6.153969673113819 -7.224225268437963 13.378194941551783 -7.224225268437963
S 69.98978742504084 130.18786752318013 69.98978742504084 155.33887401329747
z" fill="none" stroke="none"></path>
<circle cx="0" cy="0" r="16.870547985004663" fill="#ff206e">
  <animateMotion begin="-16.413045106147155s" dur="16.77s" repeatCount="indefinite">
    <mpath xlink:href="#path73"></mpath>
  </animateMotion>
</circle><path id="path74" d="M 615.026066721801 484.617769601959
c 0 24.35590679869574 -5.959424003936191 6.995845569838139 -12.95526957377433 6.995845569838139
S 589.1155275742524 508.97367640065477 589.1155275742524 484.617769601959
s 5.959424003936191 -6.995845569838139 12.95526957377433 -6.995845569838139
S 615.026066721801 460.2618628032633 615.026066721801 484.617769601959
z" fill="none" stroke="none"></path>
<circle cx="0" cy="0" r="21.434423795928648" fill="#fbff12">
  <animateMotion begin="-13.055205171378324s" dur="16.77s" repeatCount="indefinite">
    <mpath xlink:href="#path74"></mpath>
  </animateMotion>
</circle><path id="path75" d="M 921.5982692843257 446.39476765479105
c 0 20.12008830813897 -4.923000330714855 5.77917430127396 -10.702174631988814 5.77917430127396
S 900.1939200203482 466.51485596293 900.1939200203482 446.39476765479105
s 4.923000330714855 -5.77917430127396 10.702174631988814 -5.77917430127396
S 921.5982692843257 426.2746793466521 921.5982692843257 446.39476765479105
z" fill="none" stroke="none"></path>
<circle cx="0" cy="0" r="16.440323995479208" fill="#80ffdb">
  <animateMotion begin="-2.646762268437384s" dur="16.77s" repeatCount="indefinite">
    <mpath xlink:href="#path75"></mpath>
  </animateMotion>
</circle><path id="path76" d="M 576.1333836554876 485.6489472601248
c 0 26.347740339968798 -6.446787529992364 7.567967969991038 -14.014755499983401 7.567967969991038
S 548.1038726555208 511.99668760009365 548.1038726555208 485.6489472601248
s 6.446787529992364 -7.567967969991038 14.014755499983401 -7.567967969991038
S 576.1333836554876 459.301206920156 576.1333836554876 485.6489472601248
z" fill="none" stroke="none"></path>
<circle cx="0" cy="0" r="11.939031889466797" fill="#fbff12">
  <animateMotion begin="-1.419408345726497s" dur="16.77s" repeatCount="indefinite">
    <mpath xlink:href="#path76"></mpath>
  </animateMotion>
</circle><path id="path77" d="M 784.8878220159162 372.43346149905943
c 0 27.374517828308107 -6.698020319692408 7.8628934187693496 -14.560913738461759 7.8628934187693496
S 755.7659945389927 399.80797932736755 755.7659945389927 372.43346149905943
s 6.698020319692408 -7.8628934187693496 14.560913738461759 -7.8628934187693496
S 784.8878220159162 345.0589436707513 784.8878220159162 372.43346149905943
z" fill="none" stroke="none"></path>
<circle cx="0" cy="0" r="11.104209282508268" fill="#80ffdb">
  <animateMotion begin="-3.644375743120912s" dur="16.77s" repeatCount="indefinite">
    <mpath xlink:href="#path77"></mpath>
  </animateMotion>
</circle><path id="path78" d="M 410.1956401348558 368.8299818042009
c 0 34.43407122145452 -8.42535785205802 9.890637478502894 -18.315995330560916 9.890637478502894
S 373.563649473734 403.2640530256554 373.563649473734 368.8299818042009
s 8.42535785205802 -9.890637478502894 18.315995330560916 -9.890637478502894
S 410.1956401348558 334.39591058274635 410.1956401348558 368.8299818042009
z" fill="none" stroke="none"></path>
<circle cx="0" cy="0" r="18.459540654843416" fill="#ff206e">
  <animateMotion begin="-9.636693894760782s" dur="16.77s" repeatCount="indefinite">
    <mpath xlink:href="#path78"></mpath>
  </animateMotion>
</circle><path id="path79" d="M 1402.0632507575347 564.3936819733855
c 0 19.781968848123526 -4.840268973477032 5.682054881907821 -10.522323855384855 5.682054881907821
S 1381.0186030467648 584.175650821509 1381.0186030467648 564.3936819733855
s 4.840268973477032 -5.682054881907821 10.522323855384855 -5.682054881907821
S 1402.0632507575347 544.611713125262 1402.0632507575347 564.3936819733855
z" fill="none" stroke="none"></path>
<circle cx="0" cy="0" r="14.656307212148231" fill="#fbff12">
  <animateMotion begin="-5.325432740288464s" dur="16.77s" repeatCount="indefinite">
    <mpath xlink:href="#path79"></mpath>
  </animateMotion>
</circle><path id="path80" d="M 606.7533595844678 259.6917528420223
c 0 28.73820700791793 -7.031688948745875 8.254591374614725 -15.2862803233606 8.254591374614725
S 576.1807989377465 288.42995984994025 576.1807989377465 259.6917528420223
s 7.031688948745875 -8.254591374614725 15.2862803233606 -8.254591374614725
S 606.7533595844678 230.95354583410437 606.7533595844678 259.6917528420223
z" fill="none" stroke="none"></path>
<circle cx="0" cy="0" r="18.390804396093035" fill="#ff206e">
  <animateMotion begin="-13.86896020090124s" dur="16.77s" repeatCount="indefinite">
    <mpath xlink:href="#path80"></mpath>
  </animateMotion>
</circle><path id="path81" d="M 1496.4944263993216 518.1666183273824
c 0 20.74902526947064 -5.076889161678986 5.959826407188375 -11.036715568867361 5.959826407188375
S 1474.420995261587 538.915643596853 1474.420995261587 518.1666183273824
s 5.076889161678986 -5.959826407188375 11.036715568867361 -5.959826407188375
S 1496.4944263993216 497.41759305791174 1496.4944263993216 518.1666183273824
z" fill="none" stroke="none"></path>
<circle cx="0" cy="0" r="14.312967925633389" fill="#80ffdb">
  <animateMotion begin="-13.578425137123729s" dur="16.77s" repeatCount="indefinite">
    <mpath xlink:href="#path81"></mpath>
  </animateMotion>
</circle><path id="path82" d="M 978.1873857730324 82.62278299336182
c 0 27.875647182996804 -6.820637076690707 8.006834829158656 -14.827471905849363 8.006834829158656
S 948.5324419613336 110.49843017635862 948.5324419613336 82.62278299336182
s 6.820637076690707 -8.006834829158656 14.827471905849363 -8.006834829158656
S 978.1873857730324 54.74713581036502 978.1873857730324 82.62278299336182
z" fill="none" stroke="none"></path>
<circle cx="0" cy="0" r="18.499899227690094" fill="#8c00ff">
  <animateMotion begin="-1.259271257891405s" dur="16.77s" repeatCount="indefinite">
    <mpath xlink:href="#path82"></mpath>
  </animateMotion>
</circle><path id="path83" d="M 366.3822819651863 428.4780523919351
c 0 21.062713734878656 -5.1536427223639265 6.049928413209827 -11.203571135573753 6.049928413209827
S 343.97513969403883 449.54076612681376 343.97513969403883 428.4780523919351
s 5.1536427223639265 -6.049928413209827 11.203571135573753 -6.049928413209827
S 366.3822819651863 407.4153386570564 366.3822819651863 428.4780523919351
z" fill="none" stroke="none"></path>
<circle cx="0" cy="0" r="16.09803034240454" fill="#fbff12">
  <animateMotion begin="-14.521078269525614s" dur="16.77s" repeatCount="indefinite">
    <mpath xlink:href="#path83"></mpath>
  </animateMotion>
</circle><path id="path84" d="M 700.5114529554378 104.70253085443598
c 0 26.345554180094233 -6.446252618533694 7.567340030452598 -14.013592648986293 7.567340030452598
S 672.4842676574651 131.0480850345302 672.4842676574651 104.70253085443598
s 6.446252618533694 -7.567340030452598 14.013592648986293 -7.567340030452598
S 700.5114529554378 78.35697667434175 700.5114529554378 104.70253085443598
z" fill="none" stroke="none"></path>
<circle cx="0" cy="0" r="19.962908371306312" fill="#ff206e">
  <animateMotion begin="-13.157443605522442s" dur="16.77s" repeatCount="indefinite">
    <mpath xlink:href="#path84"></mpath>
  </animateMotion>
</circle><path id="path85" d="M 612.1298237677597 316.0872056614906
c 0 25.798387886036114 -6.312371504030112 7.4101752438614366 -13.722546747891549 7.4101752438614366
S 584.6847302719766 341.8855935475267 584.6847302719766 316.0872056614906
s 6.312371504030112 -7.4101752438614366 13.722546747891549 -7.4101752438614366
S 612.1298237677597 290.2888177754545 612.1298237677597 316.0872056614906
z" fill="none" stroke="none"></path>
<circle cx="0" cy="0" r="17.4291194441137" fill="#fbff12">
  <animateMotion begin="-8.821386843516374s" dur="16.77s" repeatCount="indefinite">
    <mpath xlink:href="#path85"></mpath>
  </animateMotion>
</circle><path id="path86" d="M 727.7561237603259 395.4927250038041
c 0 23.385110251082462 -5.721888678456347 6.716999752970495 -12.438888431426843 6.716999752970495
S 702.8783468974723 418.8778352548865 702.8783468974723 395.4927250038041
s 5.721888678456347 -6.716999752970495 12.438888431426843 -6.716999752970495
S 727.7561237603259 372.10761475272164 727.7561237603259 395.4927250038041
z" fill="none" stroke="none"></path>
<circle cx="0" cy="0" r="12.281407923225132" fill="#fbff12">
  <animateMotion begin="-11.133723975947609s" dur="16.77s" repeatCount="indefinite">
    <mpath xlink:href="#path86"></mpath>
  </animateMotion>
</circle><path id="path87" d="M 978.3949755029665 407.9228448769945
c 0 32.162089361433985 -7.869447396946612 9.238046944241676 -17.107494341188286 9.238046944241676
S 944.17998682059 440.08493423842845 944.17998682059 407.9228448769945
s 7.869447396946612 -9.238046944241676 17.107494341188286 -9.238046944241676
S 978.3949755029665 375.7607555155605 978.3949755029665 407.9228448769945
z" fill="none" stroke="none"></path>
<circle cx="0" cy="0" r="20.420347464540317" fill="#ff206e">
  <animateMotion begin="-16.495521688230617s" dur="16.77s" repeatCount="indefinite">
    <mpath xlink:href="#path87"></mpath>
  </animateMotion>
</circle><path id="path88" d="M 381.30220408131896 33.60135615816533
c 0 29.782231919032725 -7.287141852529283 8.554470870360463 -15.841612722889746 8.554470870360463
S 349.61897863553946 63.383588077198056 349.61897863553946 33.60135615816533
s 7.287141852529283 -8.554470870360463 15.841612722889746 -8.554470870360463
S 381.30220408131896 3.8191242391326057 381.30220408131896 33.60135615816533
z" fill="none" stroke="none"></path>
<circle cx="0" cy="0" r="13.057733515920749" fill="#ff206e">
  <animateMotion begin="-4.807260347780966s" dur="16.77s" repeatCount="indefinite">
    <mpath xlink:href="#path88"></mpath>
  </animateMotion>
</circle><path id="path89" d="M 1058.6696496639076 473.27106660897607
c 0 23.692239480338923 -5.797037319657396 6.805217723076074 -12.60225504273347 6.805217723076074
S 1033.4651395784406 496.963306089315 1033.4651395784406 473.27106660897607
s 5.797037319657396 -6.805217723076074 12.60225504273347 -6.805217723076074
S 1058.6696496639076 449.57882712863716 1058.6696496639076 473.27106660897607
z" fill="none" stroke="none"></path>
<circle cx="0" cy="0" r="18.525992654242316" fill="#8c00ff">
  <animateMotion begin="-7.645038788582401s" dur="16.77s" repeatCount="indefinite">
    <mpath xlink:href="#path89"></mpath>
  </animateMotion>
</circle><path id="path90" d="M 1786.8855345709267 365.22015374426996
c 0 25.766431602920584 -6.304552413480567 7.400996311477189 -13.705548724957756 7.400996311477189
S 1759.4744371210113 390.98658534719056 1759.4744371210113 365.22015374426996
s 6.304552413480567 -7.400996311477189 13.705548724957756 -7.400996311477189
S 1786.8855345709267 339.4537221413494 1786.8855345709267 365.22015374426996
z" fill="none" stroke="none"></path>
<circle cx="0" cy="0" r="21.08797759919308" fill="#8c00ff">
  <animateMotion begin="-6.519422873661715s" dur="16.77s" repeatCount="indefinite">
    <mpath xlink:href="#path90"></mpath>
  </animateMotion>
</circle><path id="path91" d="M 375.48460493687253 319.04443693527764
c 0 30.474198546705846 -7.456452835896111 8.753227242138914 -16.209680078035024 8.753227242138914
S 343.06524478080246 349.5186354819835 343.06524478080246 319.04443693527764
s 7.456452835896111 -8.753227242138914 16.209680078035024 -8.753227242138914
S 375.48460493687253 288.5702383885718 375.48460493687253 319.04443693527764
z" fill="none" stroke="none"></path>
<circle cx="0" cy="0" r="16.99220044060482" fill="#fbff12">
  <animateMotion begin="-16.691024671058873s" dur="16.77s" repeatCount="indefinite">
    <mpath xlink:href="#path91"></mpath>
  </animateMotion>
</circle><path id="path92" d="M 110.78200544671786 358.7600294058916
c 0 34.44551445510085 -8.428157792205525 9.89392436476301 -18.322082156968534 9.89392436476301
S 74.13784113278079 393.20554386099246 74.13784113278079 358.7600294058916
s 8.428157792205525 -9.89392436476301 18.322082156968534 -9.89392436476301
S 110.78200544671786 324.31451495079074 110.78200544671786 358.7600294058916
z" fill="none" stroke="none"></path>
<circle cx="0" cy="0" r="18.704130530094627" fill="#8c00ff">
  <animateMotion begin="-2.932001854952388s" dur="16.77s" repeatCount="indefinite">
    <mpath xlink:href="#path92"></mpath>
  </animateMotion>
</circle><path id="path93" d="M 220.73471192240464 153.2612638199861
c 0 26.732735029546326 -6.54098835829325 7.678551551039902 -14.219539909333152 7.678551551039902
S 192.29563210373834 179.99399884953243 192.29563210373834 153.2612638199861
s 6.54098835829325 -7.678551551039902 14.219539909333152 -7.678551551039902
S 220.73471192240464 126.5285287904398 220.73471192240464 153.2612638199861
z" fill="none" stroke="none"></path>
<circle cx="0" cy="0" r="13.879875157874402" fill="#8c00ff">
  <animateMotion begin="-6.028566894764835s" dur="16.77s" repeatCount="indefinite">
    <mpath xlink:href="#path93"></mpath>
  </animateMotion>
</circle><path id="path94" d="M 1154.0212770764163 397.4839048733406
c 0 23.273507366829513 -5.694581589756157 6.684943605365924 -12.379525195122081 6.684943605365924
S 1129.262226686172 420.7574122401701 1129.262226686172 397.4839048733406
s 5.694581589756157 -6.684943605365924 12.379525195122081 -6.684943605365924
S 1154.0212770764163 374.2103975065111 1154.0212770764163 397.4839048733406
z" fill="none" stroke="none"></path>
<circle cx="0" cy="0" r="16.120099205884944" fill="#80ffdb">
  <animateMotion begin="-8.445117536171766s" dur="16.77s" repeatCount="indefinite">
    <mpath xlink:href="#path94"></mpath>
  </animateMotion>
</circle><path id="path95" d="M 848.3351406083002 391.006393161824
c 0 34.12338245635448 -8.349338260597372 9.80139708852735 -18.150735349124723 9.80139708852735
S 812.0336699100508 425.1297756181785 812.0336699100508 391.006393161824
s 8.349338260597372 -9.80139708852735 18.150735349124723 -9.80139708852735
S 848.3351406083002 356.88301070546953 848.3351406083002 391.006393161824
z" fill="none" stroke="none"></path>
<circle cx="0" cy="0" r="11.496117275108727" fill="#ff206e">
  <animateMotion begin="-9.723550676318526s" dur="16.77s" repeatCount="indefinite">
    <mpath xlink:href="#path95"></mpath>
  </animateMotion>
</circle><path id="path96" d="M 659.3263234196719 27.357671077471608
c 0 22.413857998671038 -5.484241850738657 6.438023042171468 -11.922264892910126 6.438023042171468
S 635.4817936338517 49.77152907614264 635.4817936338517 27.357671077471608
s 5.484241850738657 -6.438023042171468 11.922264892910126 -6.438023042171468
S 659.3263234196719 4.94381307880057 659.3263234196719 27.357671077471608
z" fill="none" stroke="none"></path>
<circle cx="0" cy="0" r="17.024569818923847" fill="#8c00ff">
  <animateMotion begin="-1.6175945363143016s" dur="16.77s" repeatCount="indefinite">
    <mpath xlink:href="#path96"></mpath>
  </animateMotion>
</circle><path id="path97" d="M 973.3417737164102 530.1052132180887
c 0 21.09494410634951 -5.161528877085518 6.059186073100391 -11.220714950185908 6.059186073100391
S 950.9003438160385 551.2001573244382 950.9003438160385 530.1052132180887
s 5.161528877085518 -6.059186073100391 11.220714950185908 -6.059186073100391
S 973.3417737164102 509.0102691117392 973.3417737164102 530.1052132180887
z" fill="none" stroke="none"></path>
<circle cx="0" cy="0" r="11.025873222706485" fill="#fbff12">
  <animateMotion begin="-11.399340543821864s" dur="16.77s" repeatCount="indefinite">
    <mpath xlink:href="#path97"></mpath>
  </animateMotion>
</circle><path id="path98" d="M 291.79455732240996 98.44112506911503
c 0 27.04415581651289 -6.617187061487195 7.7680022026154045 -14.3851892641026 7.7680022026154045
S 263.0241787942047 125.48528088562793 263.0241787942047 98.44112506911503
s 6.617187061487195 -7.7680022026154045 14.3851892641026 -7.7680022026154045
S 291.79455732240996 71.39696925260213 291.79455732240996 98.44112506911503
z" fill="none" stroke="none"></path>
<circle cx="0" cy="0" r="19.601157560390252" fill="#80ffdb">
  <animateMotion begin="-14.199303839312835s" dur="16.77s" repeatCount="indefinite">
    <mpath xlink:href="#path98"></mpath>
  </animateMotion>
</circle><path id="path99" d="M 1091.0033412199778 229.7768513138087
c 0 23.00102912129403 -5.627911380742156 6.606678577392967 -12.234589958135123 6.606678577392967
S 1066.5341613037076 252.77788043510273 1066.5341613037076 229.7768513138087
s 5.627911380742156 -6.606678577392967 12.234589958135123 -6.606678577392967
S 1091.0033412199778 206.77582219251465 1091.0033412199778 229.7768513138087
z" fill="none" stroke="none"></path>
<circle cx="0" cy="0" r="16.089381953603304" fill="#fbff12">
  <animateMotion begin="-11.904502132280658s" dur="16.77s" repeatCount="indefinite">
    <mpath xlink:href="#path99"></mpath>
  </animateMotion>
</circle></g>
</svg>