<?xml version="1.0" encoding="iso-8859-1"?>
<!-- Generator: Adobe Illustrator 18.0.0, SVG Export Plug-In . SVG Version: 6.00 Build 0)  -->
<!DOCTYPE svg PUBLIC "-//W3C//DTD SVG 1.1//EN" "http://www.w3.org/Graphics/SVG/1.1/DTD/svg11.dtd">
<svg version="1.1" id="Capa_1" xmlns="http://www.w3.org/2000/svg" xmlns:xlink="http://www.w3.org/1999/xlink" x="0px" y="0px"
	 viewBox="0 0 443.609 443.609" style="enable-background:new 0 0 443.609 443.609;" xml:space="preserve">
<g>
	<path d="M117.095,117.103c-41.816,41.815-41.816,109.854,0,151.67c20.908,20.908,48.372,31.362,75.835,31.362
		c27.463,0,54.927-10.454,75.835-31.362c41.815-41.815,41.815-109.854,0-151.67S158.91,75.289,117.095,117.103z M266.33,213.708
		c3.649,15.462,2.377,28.823-3.515,38.508l-29.179-29.179c9.05-7.707,19.366-13.508,30.456-17.202
		C264.962,208.467,265.713,211.094,266.33,213.708z M223.03,233.644l29.179,29.179c-9.684,5.892-23.046,7.165-38.509,3.515
		c-2.614-0.617-5.241-1.368-7.872-2.237C209.523,253.01,215.324,242.694,223.03,233.644z M191.908,258.359
		c-11.001-5.418-21.813-12.862-31.828-21.965l32.85-32.85l19.449,19.449C203.251,233.47,196.346,245.457,191.908,258.359z
		 M222.985,212.387l-19.449-19.449l32.85-32.85c9.103,10.015,16.546,20.826,21.964,31.827
		C245.449,196.353,233.463,203.258,222.985,212.387z M133.653,123.054c6.05-3.681,13.53-5.563,22.067-5.563
		c5.129,0,10.637,0.677,16.44,2.047c2.615,0.617,5.244,1.369,7.876,2.239c-3.694,11.09-9.496,21.408-17.203,30.458L133.653,123.054z
		 M193.957,127.519c11,5.418,21.81,12.861,31.823,21.963l-32.85,32.85l-19.446-19.446
		C182.613,152.408,189.518,140.421,193.957,127.519z M236.395,138.867c-11.994-10.987-25.122-19.861-38.525-26.094
		c0.737-3.875,1.268-7.807,1.577-11.783c19.062,1.338,37.772,8.555,53.175,21.651L236.395,138.867z M183.615,107.177
		c-2.674-0.854-5.346-1.609-8.009-2.238c-2.017-0.476-4.008-0.876-5.976-1.213c4.847-1.257,9.772-2.131,14.732-2.59
		C184.175,103.164,183.932,105.179,183.615,107.177z M104.931,175.613c0.629,2.664,1.384,5.336,2.238,8.009
		c-1.998,0.317-4.013,0.561-6.041,0.747c0.459-4.961,1.333-9.886,2.59-14.734C104.055,171.604,104.455,173.596,104.931,175.613z
		 M119.53,172.167c-3.649-15.462-2.377-28.823,3.515-38.508l29.182,29.182c-9.049,7.706-19.367,13.507-30.458,17.202
		C120.899,177.411,120.147,174.783,119.53,172.167z M162.877,173.492l19.446,19.446l-32.85,32.85
		c-9.102-10.014-16.545-20.824-21.963-31.825C140.413,189.525,152.4,182.62,162.877,173.492z M149.465,247.009
		c11.995,10.989,25.124,19.863,38.529,26.096c-0.737,3.875-1.269,7.806-1.578,11.782c-19.063-1.338-37.774-8.555-53.178-21.651
		L149.465,247.009z M202.249,278.7c2.672,0.854,5.344,1.608,8.006,2.237c2.02,0.477,4.012,0.875,5.982,1.212
		c-4.848,1.258-9.774,2.132-14.735,2.591C201.688,282.713,201.932,280.697,202.249,278.7z M280.929,210.263
		c-0.628-2.663-1.383-5.334-2.237-8.006c1.998-0.317,4.013-0.56,6.04-0.747c-0.459,4.959-1.333,9.884-2.59,14.73
		C281.805,214.272,281.405,212.28,280.929,210.263z M273.097,188.001c-6.233-13.404-15.107-26.533-26.096-38.528l16.227-16.227
		c13.097,15.403,20.313,34.115,21.651,53.178C280.903,186.733,276.972,187.264,273.097,188.001z M100.981,199.455
		c3.976-0.309,7.907-0.841,11.783-1.578c6.233,13.403,15.107,26.531,26.094,38.525l-16.227,16.227
		C109.536,237.227,102.319,218.517,100.981,199.455z"/>
	<path d="M338.337,160.501c-1.435,0.269-2.822,1.001-3.84,2.05c-2.894,2.813-2.898,7.787,0,10.6
		c3.894,4.011,10.881,2.145,12.474-3.122C348.576,164.721,343.787,159.38,338.337,160.501
		C337.857,160.591,340.768,160.001,338.337,160.501z"/>
	<path d="M349.391,190.178c-0.073-4.141-3.519-7.408-7.63-7.368c-4.142,0.073-7.44,3.489-7.368,7.63
		c0.679,38.738-14.03,75.154-41.418,102.542c-55.165,55.166-144.924,55.165-200.089,0c-55.165-55.165-55.165-144.925,0-200.09
		c55.165-55.165,144.924-55.166,200.089,0c15.914,15.914,27.5,34.749,34.437,55.982c1.287,3.938,5.524,6.086,9.458,4.8
		c3.938-1.286,6.086-5.521,4.8-9.458c-7.677-23.497-20.492-44.333-38.089-61.93C274.025,52.73,234.729,36.453,192.93,36.453
		c-41.799,0-81.095,16.277-110.651,45.833s-45.833,68.853-45.833,110.651s16.277,81.095,45.833,110.651
		s68.853,45.833,110.651,45.833c41.798,0,81.095-16.277,110.651-45.833C333.873,273.298,350.142,233.021,349.391,190.178z"/>
	<path d="M434.163,388.562l-83.899-83.899c23.122-32.414,35.596-71.109,35.596-111.725c0-51.534-20.068-99.982-56.508-136.422
		C292.913,20.076,244.463,0.008,192.93,0.008c-51.533,0-99.982,20.068-136.422,56.508C20.068,92.956,0,141.404,0,192.938
		S20.068,292.92,56.508,329.36c36.439,36.44,84.889,56.508,136.422,56.508c40.616,0,79.311-12.474,111.726-35.596l83.899,83.899
		c6.287,6.287,14.546,9.431,22.804,9.431c8.259,0,16.517-3.144,22.804-9.431c6.092-6.091,9.446-14.19,9.446-22.804
		S440.254,394.653,434.163,388.562z M67.114,318.753C33.508,285.147,15,240.465,15,192.938s18.508-92.209,52.114-125.815
		s78.289-52.114,125.815-52.114c47.527,0,92.209,18.508,125.816,52.114c33.606,33.606,52.115,78.289,52.115,125.815
		s-18.508,92.209-52.115,125.815c-33.607,33.606-78.289,52.114-125.816,52.114C145.403,370.868,100.721,352.36,67.114,318.753z
		 M423.556,423.563c-6.726,6.726-17.669,6.726-24.396,0l-82.55-82.55c4.388-3.678,8.645-7.556,12.742-11.653
		c4.097-4.097,7.976-8.354,11.654-12.742l82.55,82.55c3.258,3.258,5.053,7.59,5.053,12.198S426.814,420.305,423.556,423.563z"/>
</g>
<g>
</g>
<g>
</g>
<g>
</g>
<g>
</g>
<g>
</g>
<g>
</g>
<g>
</g>
<g>
</g>
<g>
</g>
<g>
</g>
<g>
</g>
<g>
</g>
<g>
</g>
<g>
</g>
<g>
</g>
</svg>
