<svg fill="#000000" xmlns="http://www.w3.org/2000/svg"  viewBox="0 0 64 64" width="64px" height="64px"><path d="M 13 13 C 9.68 13 6.6797656 14.339766 4.5097656 16.509766 C 2.3397656 18.679766 1 21.68 1 25 L 1 51 L 25 51 L 25 25 C 25 18.37 19.63 13 13 13 z M 22.400391 13 C 25.580391 15.45 27 19.91 27 25 L 27 51 L 55 51 L 55 37 L 58 37 L 60 44 L 63 44 L 63 37 L 63 36 L 63 33 L 55 33 L 36 33 C 33.791 33 32 31.209 32 29 C 32 26.791 33.791 25 36 25 C 38.209 25 40 26.791 40 29 L 55 29 L 55 25 C 55 18.37 49.63 13 43 13 L 41 13 L 40 13 L 36 13 L 30 13 L 22.400391 13 z M 6 27 L 20 27 L 20 30 L 6 30 L 6 27 z"/></svg>