<svg width="128" height="100" viewBox="0 0 128 100" fill="none" xmlns="http://www.w3.org/2000/svg">
<path fill-rule="evenodd" clip-rule="evenodd" d="M26.586 0C19.2825 0 13.8782 6.21596 14.1202 12.957C14.3525 19.4333 14.0507 27.8211 11.8792 34.6613C9.7 41.5208 6.017 45.8675 0 46.4255V52.7245C6.017 53.2837 9.7 57.6283 11.879 64.4887C14.0507 71.3289 14.3522 79.7167 14.12 86.193C13.878 92.9331 19.2822 99.15 26.587 99.15H101.424C108.727 99.15 114.13 92.934 113.888 86.193C113.656 79.7167 113.958 71.3289 116.13 64.4887C118.309 57.6283 121.983 53.282 128 52.7245V46.4255C121.983 45.8663 118.309 41.5217 116.13 34.6613C113.958 27.8221 113.656 19.4333 113.888 12.957C114.13 6.21693 108.727 0 101.424 0H26.585H26.586ZM86.7797 61.0333C86.7797 70.3154 79.6595 75.9448 67.8432 75.9448H47.7287C47.1534 75.9448 46.6015 75.7225 46.1947 75.3269C45.7878 74.9313 45.5592 74.3947 45.5592 73.8352V25.315C45.5592 24.7555 45.7878 24.2189 46.1947 23.8233C46.6015 23.4277 47.1534 23.2054 47.7287 23.2054H67.7288C77.5815 23.2054 84.0478 28.395 84.0478 36.3627C84.0478 41.9552 79.6977 46.9617 74.156 47.8388V48.1305C81.7 48.9352 86.7797 54.0159 86.7797 61.0333V61.0333ZM65.65 29.8928H54.181V45.6454H63.8408C71.3083 45.6454 75.4258 42.7214 75.4258 37.4951C75.425 32.5972 71.885 29.8928 65.65 29.8928ZM54.181 51.8956V69.2553H66.072C73.847 69.2553 77.9652 66.2217 77.9652 60.5206C77.9652 54.8195 73.7315 51.8946 65.572 51.8946H54.181V51.8956Z" fill="#7952B3"/>
</svg>
