<svg width="128" height="129" viewBox="0 0 128 129" fill="none" xmlns="http://www.w3.org/2000/svg">
<path d="M125.586 58.3004L69.7001 2.41636C66.4836 -0.802199 61.2636 -0.802199 58.0431 2.41636L46.4381 14.0216L61.1596 28.7433C64.5806 27.5873 68.5036 28.3628 71.2306 31.0899C73.9706 33.8344 74.7406 37.791 73.5566 41.2231L87.7442 55.4113C91.1767 54.2288 95.1372 54.9938 97.8787 57.7399C101.71 61.57 101.71 67.7776 97.8787 71.6101C94.0462 75.4432 87.8387 75.4432 84.0042 71.6101C81.1222 68.7251 80.4102 64.4925 81.8692 60.9419L68.6381 47.7107L68.6366 82.5299C69.5958 83.0041 70.4718 83.6306 71.2306 84.3849C75.0621 88.215 75.0621 94.4231 71.2306 98.2586C67.3981 102.09 61.1876 102.09 57.3606 98.2586C53.5291 94.4231 53.5291 88.2155 57.3606 84.3854C58.2788 83.4667 59.37 82.7392 60.5711 82.2448V47.1012C59.3683 46.6101 58.2764 45.8822 57.3606 44.9607C54.4576 42.0616 53.7596 37.802 55.2471 34.2375L40.7351 19.7237L2.415 58.0419C-0.805002 61.2635 -0.805002 66.4841 2.415 69.7031L58.3021 125.588C61.5196 128.807 66.7386 128.807 69.9601 125.588L125.586 69.9626C128.805 66.7426 128.805 61.519 125.586 58.3004" fill="#313131" fill-opacity="0.6"/>
</svg>
