<svg width="56" height="130" viewBox="0 0 56 130" fill="none" xmlns="http://www.w3.org/2000/svg">
<path d="M28.0257 0.833679L31.2933 7.29928C32.0279 8.49244 32.8238 9.54854 33.7612 10.5321C36.5095 13.3913 39.0713 16.443 41.429 19.6662C46.9655 27.3249 50.7 35.8302 53.3668 45.0288C54.9662 50.6479 55.8348 56.4121 55.8998 62.2408C56.1676 79.6665 50.4972 94.6293 39.0644 107.065C37.2047 109.037 35.1957 110.846 33.0572 112.474C31.9246 112.474 31.3889 111.559 30.9221 110.717C30.0721 109.155 29.5063 107.439 29.2539 105.658C28.8522 103.55 28.5881 101.442 28.7182 99.2649V98.2813C28.6264 98.0717 27.6278 1.32948 28.0257 0.833679V0.833679Z" fill="#599636"/>
<path d="M28.0256 0.620488C27.8916 0.338322 27.7577 0.551962 27.6238 0.689014C27.6888 2.09984 27.222 3.35749 26.4912 4.55871C25.6877 5.75186 24.624 6.66689 23.5565 7.65043C17.6259 13.0599 12.9579 19.5941 9.21962 26.9022C4.24552 36.7376 1.68194 47.2785 0.954961 58.3757C0.622079 62.3784 2.1564 76.5028 3.35401 80.5781C6.62161 91.3971 12.4911 100.463 20.0938 108.331C21.961 110.226 23.9583 111.983 26.0244 113.672C26.6252 113.672 26.6902 113.108 26.8279 112.688C27.0913 111.791 27.2921 110.875 27.4287 109.947L28.7678 99.4106L28.0256 0.620488Z" fill="#6CAC48"/>
<path d="M31.2927 116.756C31.4266 115.144 32.1612 113.806 32.9609 112.471C32.1574 112.121 31.5605 111.423 31.0937 110.645C30.6912 109.909 30.358 109.132 30.0989 108.327C29.1653 105.377 28.9663 102.281 28.6985 99.266V97.4399C28.3656 97.7221 28.2967 100.108 28.2967 100.463C28.102 103.65 27.7006 106.819 27.0953 109.948C26.8963 111.214 26.7624 112.475 26.0239 113.6C26.0239 113.741 26.0239 113.882 26.089 114.092C27.2904 117.816 27.6195 121.609 27.8223 125.475V126.886C27.8223 128.571 27.7572 128.216 29.0849 128.78C29.6206 128.99 30.2175 129.063 30.7532 129.482C31.1549 129.482 31.22 129.131 31.22 128.849L31.021 126.531V120.066C30.9559 118.937 31.1549 117.816 31.2888 116.76L31.2927 116.756Z" fill="#C2BFBF"/>
</svg>
