<svg width="129" height="71" viewBox="0 0 129 71" fill="none" xmlns="http://www.w3.org/2000/svg">
<path d="M66.8272 50.3377C63.7594 50.3377 61.9324 51.6037 61.9324 53.7089C61.9324 55.9923 63.7458 56.6199 66.6902 56.9022C70.2126 57.2366 70.487 57.7381 70.487 58.4104C70.487 59.5764 69.5282 60.0736 67.2621 60.0736C64.4146 60.0736 63.789 59.3844 63.5795 58.0112C63.5547 57.8639 63.4374 57.7449 63.2819 57.7449H61.8867C61.715 57.7449 61.5665 57.8885 61.5665 58.0556C61.5665 59.8135 62.5527 61.8922 67.2621 61.8922C70.671 61.8922 72.6373 60.5948 72.6373 58.3216C72.6373 56.0684 71.049 55.4634 67.7422 55.0395C64.401 54.6108 64.0824 54.4009 64.0824 53.6423C64.0824 53.016 64.3527 52.1782 66.8272 52.1782C69.0379 52.1782 69.855 52.6406 70.1897 54.0859C70.219 54.2215 70.3423 54.3297 70.487 54.3297H71.8826C71.9684 54.3297 72.0517 54.2785 72.1111 54.2187C72.1696 54.1549 72.211 54.0831 72.2027 53.9971C71.9865 51.5084 70.2749 50.3377 66.8272 50.3377V50.3377Z" fill="#83CD29"/>
<path d="M86.5599 0.186911C86.4395 0.186988 86.3212 0.217477 86.2166 0.275374C86.1127 0.33433 86.0264 0.418518 85.9662 0.519643C85.9061 0.620769 85.8741 0.735343 85.8736 0.852079V17.8179C85.8736 17.9843 85.7938 18.1335 85.645 18.217C85.5721 18.2582 85.4892 18.2799 85.4048 18.2799C85.3204 18.2799 85.2375 18.2582 85.1646 18.217L82.3054 16.6204C82.0968 16.5034 81.8601 16.4418 81.6192 16.4418C81.3782 16.4418 81.1415 16.5034 80.933 16.6204L69.5191 23.0073C69.0925 23.2462 68.8331 23.7051 68.8331 24.1829V36.957C68.8331 37.4342 69.0928 37.8712 69.5191 38.1101L80.933 44.4973C81.1414 44.6146 81.3782 44.6764 81.6192 44.6764C81.8602 44.6764 82.0969 44.6146 82.3054 44.4973L93.7192 38.1101C93.9282 37.9935 94.1017 37.8255 94.2222 37.623C94.3427 37.4205 94.406 37.1908 94.4056 36.957V5.11033C94.4052 4.87108 94.3395 4.63619 94.2149 4.42966C94.0904 4.22312 93.9115 4.05233 93.6966 3.93472L86.9029 0.253181C86.7964 0.195541 86.6782 0.18537 86.5599 0.186911V0.186911ZM13.136 16.1324C12.9186 16.1408 12.7138 16.1778 12.5187 16.2875L1.10451 22.6747C0.895423 22.7912 0.721832 22.9592 0.601345 23.1617C0.480858 23.3642 0.417763 23.594 0.418463 23.8278L0.441352 40.9714C0.441352 41.2097 0.568197 41.4313 0.784374 41.5478C0.888015 41.6082 1.00665 41.6401 1.12756 41.6401C1.24846 41.6401 1.3671 41.6082 1.47074 41.5478L8.24121 37.7778C8.67007 37.5306 8.95014 37.101 8.95014 36.6244V28.6184C8.95014 28.1406 9.20924 27.7023 9.63651 27.465L12.5183 25.8461C12.7267 25.7287 12.9637 25.6674 13.2047 25.6686C13.4399 25.6686 13.6816 25.7256 13.8907 25.8461L16.7729 27.465C16.9822 27.5813 17.1559 27.7493 17.2765 27.9519C17.397 28.1545 17.4601 28.3845 17.4593 28.6184V36.6241C17.4593 37.1006 17.7422 37.5334 18.1682 37.7775L24.9387 41.5478C25.0423 41.6082 25.1609 41.6401 25.2818 41.6401C25.4028 41.6401 25.5214 41.6082 25.625 41.5478C25.7293 41.4893 25.816 41.4052 25.8762 41.304C25.9365 41.2028 25.9683 41.088 25.9684 40.9711L25.9906 23.8278C25.992 23.5939 25.9292 23.3638 25.8086 23.1612C25.688 22.9586 25.5141 22.7907 25.3046 22.6747L13.8907 16.2875C13.6978 16.1778 13.4924 16.1411 13.2734 16.1324H13.136ZM115.701 16.2875C115.462 16.2875 115.228 16.3461 115.015 16.465L103.601 22.8522C103.392 22.9688 103.218 23.1368 103.098 23.3393C102.977 23.5418 102.914 23.7716 102.914 24.0053V36.7795C102.914 37.26 103.193 37.6952 103.623 37.9329L114.946 44.1869C115.364 44.4181 115.874 44.4357 116.295 44.2085L123.157 40.5051C123.375 40.388 123.522 40.1691 123.523 39.9287C123.525 39.8116 123.493 39.6964 123.433 39.595C123.373 39.4935 123.285 39.4096 123.18 39.352L111.698 32.9648C111.483 32.8458 111.332 32.6051 111.332 32.3659V28.3743C111.332 28.1354 111.484 27.9165 111.698 27.7975L115.266 25.8014C115.37 25.7429 115.489 25.7121 115.609 25.7121C115.73 25.7121 115.848 25.7429 115.952 25.8014L119.52 27.7975C119.625 27.8558 119.712 27.9397 119.772 28.041C119.832 28.1422 119.864 28.2571 119.864 28.3739V31.5232C119.863 31.64 119.895 31.7549 119.955 31.8561C120.015 31.9574 120.102 32.0413 120.207 32.0996C120.421 32.2195 120.679 32.2198 120.893 32.0996L127.732 28.2414C127.941 28.1244 128.114 27.9562 128.234 27.7537C128.355 27.5513 128.418 27.3217 128.418 27.088V24.0057C128.418 23.5294 128.158 23.0914 127.732 22.8522L116.387 16.465C116.178 16.3481 115.942 16.2869 115.701 16.2878V16.2875ZM81.5732 25.8239C81.633 25.8239 81.7029 25.8381 81.7563 25.868L85.6679 28.0635C85.7741 28.123 85.851 28.2331 85.851 28.3517V32.7428C85.851 32.8621 85.7747 32.9719 85.6679 33.0314L81.7563 35.2269C81.7041 35.2558 81.645 35.271 81.5848 35.271C81.5247 35.271 81.4656 35.2558 81.4133 35.2269L77.5021 33.0314C77.3956 32.9716 77.319 32.8621 77.319 32.7428V28.3517C77.319 28.2328 77.3959 28.1237 77.5021 28.0635L81.4133 25.8683C81.4614 25.8393 81.5169 25.824 81.5735 25.8242V25.8239H81.5732Z" fill="#404137"/>
<path d="M47.4232 16.2207C47.1854 16.2207 46.9501 16.2793 46.7371 16.3983L35.3233 22.7633C34.8964 23.0016 34.637 23.4615 34.637 23.9386V36.7127C34.637 37.1905 34.8967 37.6269 35.3233 37.8661L46.7371 44.253C46.9456 44.3704 47.1823 44.4323 47.4233 44.4323C47.6644 44.4323 47.9011 44.3704 48.1095 44.253L59.5234 37.8661C59.7323 37.7494 59.9058 37.5813 60.0263 37.3788C60.1467 37.1763 60.2099 36.9465 60.2094 36.7127V23.9386C60.2094 23.4608 59.95 23.0016 59.5234 22.7633L48.1095 16.3983C47.9009 16.2814 47.6641 16.2202 47.4232 16.2207V16.2207ZM115.678 27.6201C115.632 27.6201 115.582 27.6201 115.541 27.6423L113.345 28.8842C113.304 28.9063 113.27 28.9384 113.245 28.9773C113.221 29.0163 113.208 29.0607 113.207 29.1061V31.5455C113.207 31.6373 113.262 31.7215 113.345 31.7674L115.541 32.9871C115.623 33.0333 115.711 33.0333 115.792 32.9871L117.988 31.7671C118.029 31.7449 118.063 31.7128 118.087 31.674C118.111 31.6351 118.124 31.5908 118.125 31.5455V29.1058C118.124 29.0605 118.111 29.0162 118.087 28.9773C118.063 28.9385 118.029 28.9064 117.988 28.8842L115.792 27.642C115.751 27.6189 115.723 27.6204 115.678 27.6204V27.6201Z" fill="#83CD29"/>
<path d="M63.9436 41.7328C63.5482 41.7328 63.1635 41.812 62.823 41.9988L52.0498 48.0309C51.3526 48.4206 50.9288 49.156 50.9288 49.9386V61.981C50.9288 62.7629 51.3526 63.4975 52.0498 63.888L54.8633 65.4628C56.2303 66.1159 56.7341 66.1057 57.3563 66.1057C59.3801 66.1057 60.5357 64.915 60.5357 62.8459V50.9585C60.5357 50.7906 60.3856 50.6703 60.2155 50.6703H58.866C58.6931 50.6703 58.5459 50.7906 58.5459 50.9585V62.8459C58.5459 63.7629 57.5604 64.6854 55.9613 63.9102L53.0334 62.247C52.9297 62.1924 52.8503 62.0959 52.8503 61.981V49.9383C52.8503 49.8242 52.9288 49.708 53.0334 49.6501L63.7837 43.6405C63.8323 43.613 63.8875 43.5985 63.9438 43.5985C64 43.5985 64.0553 43.613 64.1039 43.6405L74.8545 49.6504C74.9569 49.7102 75.0376 49.8209 75.0376 49.9389V61.9813C75.0376 62.0962 74.9779 62.214 74.8774 62.2695L64.1039 68.2794C64.0117 68.3327 63.8845 68.3327 63.7837 68.2794L61.016 66.6828C60.9739 66.6606 60.9268 66.649 60.8788 66.649C60.8309 66.649 60.7838 66.6606 60.7417 66.6828C59.9777 67.1026 59.834 67.1513 59.1175 67.3923C58.941 67.4521 58.6731 67.5449 59.209 67.8362L62.823 69.8982C63.1638 70.0888 63.5506 70.1884 63.9439 70.1867C64.3373 70.1891 64.7242 70.0896 65.0646 69.8985L75.8381 63.8883C76.5353 63.4953 76.9587 62.7633 76.9587 61.9813V49.9386C76.9587 49.1563 76.5353 48.4221 75.8381 48.0316L65.0646 41.9994C64.727 41.8123 64.3397 41.7331 63.9439 41.7331L63.9436 41.7328Z" fill="#83CD29"/>
</svg>
