<svg width="128" height="122" viewBox="0 0 128 122" fill="none" xmlns="http://www.w3.org/2000/svg">
<path d="M22.6667 0.25H105.333C117.867 0.25 128 10.0748 128 22.2265V99.2735C128 111.425 117.867 121.25 105.333 121.25H22.6667C10.1333 121.25 0 111.425 0 99.2735V22.2265C0 10.0748 10.1333 0.25 22.6667 0.25Z" fill="#001E36"/>
<path d="M28.8 85.1051V31.8962C28.8 31.5342 28.96 31.3273 29.3334 31.3273C30.24 31.3273 31.0934 31.3273 32.32 31.2756C33.6 31.2239 34.9334 31.2239 36.3734 31.1722C37.8134 31.1205 39.3601 31.1205 41.0134 31.0688C42.6667 31.0171 44.2667 31.0171 45.8667 31.0171C50.24 31.0171 53.8667 31.5342 56.8534 32.6201C59.52 33.4991 61.9734 34.947 64.0001 36.8603C65.7067 38.515 67.0401 40.5316 67.8934 42.7551C68.6934 44.9269 69.1201 47.1504 69.1201 49.4773C69.1201 53.9244 68.0534 57.5957 65.92 60.4914C63.7867 63.3872 60.8001 65.559 57.3334 66.8C53.7067 68.0927 49.7067 68.5581 45.3334 68.5581C44.0534 68.5581 43.2 68.5581 42.6667 68.5064C42.1334 68.4547 41.3867 68.4547 40.3734 68.4547V85.0534C40.4267 85.4154 40.16 85.7256 39.7867 85.7773H29.44C29.0134 85.7773 28.8 85.5705 28.8 85.1051ZM40.4267 41.3073V58.6816C41.1734 58.7333 41.8667 58.785 42.5067 58.785H45.3334C47.4134 58.785 49.4934 58.4748 51.4667 57.8543C53.1734 57.3889 54.6667 56.4064 55.84 55.1137C56.96 53.8209 57.4934 52.0628 57.4934 49.7876C57.5467 48.1846 57.1201 46.5816 56.2667 45.1855C55.3601 43.841 54.0801 42.8068 52.5334 42.238C50.56 41.4624 48.4267 41.1521 46.24 41.2038C44.8534 41.2038 43.6267 41.2038 42.6134 41.2556C41.5467 41.2038 40.8001 41.2556 40.4267 41.3073V41.3073ZM102.4 55.5273C100.8 54.7 99.0934 54.1312 97.28 53.7692C95.3067 53.3556 93.3334 53.097 91.3067 53.097C90.2401 53.0453 89.1201 53.2004 88.1067 53.459C87.4134 53.6141 86.8267 53.9761 86.4534 54.4932C86.1867 54.9068 86.0267 55.4239 86.0267 55.8893C86.0267 56.3547 86.2401 56.8201 86.5601 57.2338C87.0401 57.8026 87.6801 58.2679 88.3734 58.6299C89.6001 59.2504 90.8801 59.8192 92.1601 60.3363C95.0401 61.2671 97.8134 62.5598 100.373 64.1111C102.133 65.197 103.573 66.6449 104.587 68.403C105.44 70.0577 105.867 71.8675 105.813 73.7291C105.867 76.1594 105.12 78.5897 103.733 80.6064C102.24 82.6748 100.16 84.2778 97.7601 85.2085C95.1467 86.2944 91.9467 86.8632 88.1067 86.8632C85.6534 86.8632 83.2534 86.6564 80.8534 86.191C78.9867 85.8808 77.12 85.312 75.4134 84.5363C75.04 84.3295 74.7734 83.9675 74.8267 83.5538V74.5564C74.8267 74.4013 74.88 74.1944 75.04 74.091C75.2 73.9876 75.3601 74.0393 75.5201 74.1427C77.6001 75.332 79.7867 76.1594 82.1334 76.6765C84.1601 77.1936 86.2934 77.4521 88.4267 77.4521C90.4534 77.4521 91.8934 77.1936 92.8534 76.7282C93.7067 76.3662 94.2934 75.4872 94.2934 74.5564C94.2934 73.8325 93.8667 73.1603 93.0134 72.488C92.16 71.8158 90.4001 71.0402 87.7867 70.0577C85.0667 69.1269 82.56 67.8859 80.2134 66.3346C78.56 65.197 77.1734 63.6974 76.1601 61.9393C75.3067 60.2846 74.8801 58.4748 74.9334 56.665C74.9334 54.4414 75.5734 52.3214 76.7467 50.4081C78.08 48.3397 80.0534 46.685 82.3467 45.6509C84.8534 44.4098 88.0001 43.841 91.7867 43.841C93.9734 43.841 96.2134 43.9961 98.4001 44.3064C100 44.5132 101.547 44.9269 102.987 45.4957C103.2 45.5474 103.413 45.7543 103.52 45.9611C103.573 46.1679 103.627 46.3748 103.627 46.5816V55.0103C103.627 55.2171 103.52 55.4239 103.36 55.5273C102.88 55.6308 102.613 55.6308 102.4 55.5273V55.5273Z" fill="#31A8FF"/>
</svg>
