<svg width="121" height="129" viewBox="0 0 121 129" fill="none" xmlns="http://www.w3.org/2000/svg">
<g id="postgresql">
<path id="Vector" d="M120.307 76.8819C119.583 74.6218 117.686 73.0477 115.233 72.67C114.077 72.492 112.752 72.5679 111.185 72.9009C108.453 73.4818 106.426 73.703 104.947 73.7458C110.53 64.0303 115.07 52.9511 117.684 42.522C121.91 25.6582 119.651 17.9758 117.012 14.5008C110.028 5.30307 99.8387 0.361942 87.5458 0.210753C80.9881 0.128109 75.2313 1.46256 72.2281 2.4222C69.432 1.9137 66.4255 1.6298 63.271 1.57729C57.3575 1.48006 52.1328 2.80869 47.6684 5.53934C45.1968 4.6779 41.23 3.46352 36.649 2.68861C25.875 0.865583 17.1914 2.28609 10.8398 6.91074C3.14864 12.5101 -0.416763 22.2387 0.242642 35.8264C0.452066 40.1404 2.79347 53.2662 6.4801 65.7143C8.59887 72.8693 10.8582 78.8109 13.1954 83.3757C16.5098 89.8487 20.0564 93.6605 24.0378 95.0295C26.2693 95.7956 30.3238 96.3323 34.5883 92.6717C35.1288 93.3465 35.85 94.0169 36.807 94.6396C38.0226 95.4296 39.5088 96.0752 40.9932 96.4578C46.3425 97.836 51.3531 97.4913 55.6279 95.5594C55.6543 96.343 55.6746 97.0917 55.6916 97.7383C55.7199 98.7869 55.7482 99.8151 55.7854 100.777C56.0387 107.278 56.468 112.334 57.7396 115.871C57.8094 116.065 57.9033 116.362 58.0023 116.676C58.6367 118.678 59.6975 122.03 62.3965 124.654C65.1912 127.373 68.5717 128.207 71.6678 128.207C73.2205 128.207 74.702 127.997 76.0015 127.71C80.6334 126.687 85.894 125.128 89.6995 119.544C93.2974 114.264 95.0464 106.312 95.3629 93.783C95.404 93.4286 95.4417 93.0903 95.478 92.768L95.5535 92.1058L96.4011 92.1826L96.6195 92.1977C101.337 92.4194 107.106 91.3883 110.649 89.6922C113.448 88.3533 122.419 83.472 120.307 76.8819" fill="black" fill-opacity="0.7"/>
<path id="Vector_2" d="M51.002 39.6624C49.7379 39.4811 48.5932 39.6488 48.0139 40.1009C47.6885 40.3552 47.5875 40.6498 47.5602 40.8525C47.4875 41.3897 47.8526 41.9838 48.0771 42.29C48.712 43.1573 49.6393 43.7533 50.5572 43.8846C50.6902 43.904 50.8228 43.9128 50.9544 43.9128C52.485 43.9128 53.8769 42.6843 53.9995 41.7776C54.1528 40.642 52.5534 39.8851 51.002 39.6629V39.6624ZM92.8794 39.6984C92.7587 38.8083 91.2219 38.5545 89.7635 38.7636C88.307 38.9726 86.8948 39.6503 87.0127 40.5424C87.107 41.2361 88.3225 42.4203 89.7612 42.4203C89.8828 42.4203 90.0055 42.4121 90.1291 42.3941C91.0894 42.257 91.7941 41.6284 92.129 41.2662C92.6384 40.714 92.9337 40.0985 92.8794 39.6984" fill="white" fill-opacity="0.7"/>
<path id="Vector_3" d="M116.908 77.8245C116.373 76.1575 114.651 75.6213 111.791 76.2299C103.298 78.0364 100.257 76.7851 99.2584 76.0272C105.86 65.6627 111.29 53.1339 114.22 41.4446C115.607 35.9075 116.374 30.7651 116.436 26.5736C116.506 21.9733 115.745 18.5927 114.178 16.5275C107.856 8.20238 98.5783 3.73669 87.3476 3.61419C79.6268 3.52474 73.1034 5.56118 71.8389 6.13385C69.1758 5.45131 66.2726 5.03226 63.1119 4.97878C57.3159 4.88204 52.3058 6.31226 48.1578 9.22765C46.356 8.53636 41.6996 6.88883 36.0051 5.94328C26.1602 4.30985 18.337 5.54757 12.7542 9.62385C6.09269 14.4882 3.01735 23.1833 3.61308 35.4671C3.81354 39.5997 6.09835 52.3133 9.70385 64.4887C14.4499 80.5138 19.6091 89.5857 25.0371 91.4519C25.6725 91.6702 26.405 91.8229 27.213 91.8229C29.1931 91.8229 31.6208 90.9031 34.1467 87.7733C37.2274 83.9642 40.4143 80.2476 43.7033 76.6281C45.8372 77.8084 48.1814 78.4676 50.579 78.5337C50.5837 78.5984 50.5898 78.6631 50.5955 78.7272C50.1828 79.2345 49.7786 79.749 49.3833 80.2707C47.722 82.4443 47.3763 82.8968 42.0289 84.0315C40.5077 84.3553 36.4678 85.2133 36.4083 88.1321C36.3442 91.3212 41.1841 92.6605 41.7355 92.8024C43.6571 93.2983 45.5084 93.5428 47.2739 93.5428C51.5676 93.5428 55.3462 92.0883 58.3659 89.274C58.273 100.643 58.7328 111.846 60.0573 115.259C61.1422 118.053 63.7921 124.882 72.1625 124.881C73.3907 124.881 74.7425 124.734 76.2297 124.405C84.9657 122.475 88.7594 118.496 90.2268 109.723C91.0121 105.034 92.3597 93.8374 92.9936 87.8317C94.3313 88.2619 96.0534 88.4588 97.9151 88.4583C101.798 88.4583 106.278 87.608 109.088 86.2639C112.245 84.7529 117.941 81.0456 116.908 77.8245V77.8245ZM96.1039 37.2415C96.0751 39.0144 95.8383 40.624 95.5874 42.3041C95.3171 44.1111 95.0379 45.9794 94.9676 48.2472C94.8983 50.4543 95.1657 52.7489 95.4242 54.9681C95.9468 59.4503 96.4831 64.0648 94.4072 68.6179C94.0624 67.9882 93.7553 67.3374 93.4875 66.669C93.2295 66.0244 92.6691 64.9889 91.8932 63.5558C88.8749 57.9768 81.8068 44.9123 85.4251 39.5813C86.5029 37.9945 89.2381 36.363 96.1039 37.2415V37.2415ZM87.7816 7.20433C97.8444 7.4333 105.804 11.3132 111.44 18.7356C115.762 24.4288 111.003 50.3337 97.2236 72.6821C97.0851 72.5005 96.9458 72.3195 96.8057 72.1391L96.6312 71.9145C100.192 65.8537 99.4957 59.8572 98.8759 54.5408C98.6212 52.359 98.3806 50.2982 98.442 48.3624C98.5052 46.3109 98.7684 44.5511 99.0231 42.8496C99.3358 40.7529 99.6542 38.5832 99.5664 36.0256C99.632 35.7573 99.6584 35.4403 99.624 35.0641C99.3999 32.6115 96.6831 25.2712 91.1456 18.6277C88.1165 14.9938 83.6992 10.9272 77.6679 8.18439C80.2621 7.63019 83.8096 7.11342 87.7816 7.20433V7.20433ZM31.4737 85.4826C28.6908 88.9313 26.7691 88.2702 26.1371 88.0533C22.0194 86.6377 17.2413 77.6674 13.0287 63.443C9.38358 51.1349 7.25348 38.7582 7.08462 35.2877C6.55257 24.3116 9.13406 16.6622 14.7579 12.5514C23.9103 5.8621 38.9578 9.86595 45.0042 11.8966C44.9174 11.985 44.8269 12.0677 44.741 12.1576C34.8188 22.4852 35.0542 40.1301 35.0787 41.2089C35.0777 41.625 35.1117 42.2142 35.1579 43.0246C35.3287 45.9925 35.6466 51.516 34.7976 57.7712C34.0089 63.584 35.7475 69.2733 39.5667 73.3807C39.9587 73.8014 40.3706 74.2018 40.8011 74.5804C39.1012 76.457 35.4065 80.6066 31.4737 85.4826V85.4826ZM42.0765 70.9018C38.9983 67.5912 37.6003 62.9865 38.2403 58.267C39.1365 51.6594 38.8059 45.9045 38.6281 42.8126C38.6031 42.38 38.5809 42.0008 38.5682 41.7018C40.0176 40.3771 46.7348 36.6678 51.5251 37.7991C53.7109 38.3149 55.0429 39.8491 55.5967 42.4879C58.4626 56.1499 55.9759 61.8441 53.9779 66.4201C53.5661 67.3627 53.177 68.2538 52.8449 69.1755L52.5874 69.8882C51.9355 71.6899 51.3289 73.3651 50.953 74.9557C47.6805 74.946 44.4971 73.5051 42.0765 70.9013V70.9018ZM42.5788 89.3265C41.6232 89.0806 40.7638 88.6532 40.2596 88.2988C40.6808 88.0947 41.4303 87.8166 42.7302 87.5405C49.021 86.206 49.9927 85.2639 52.1143 82.4875C52.6006 81.8507 53.152 81.1292 53.9156 80.2503L53.9165 80.2493C55.0538 78.9367 55.574 79.1594 56.5174 79.5629C57.282 79.8886 58.0267 80.8764 58.3286 81.9635C58.4715 82.4768 58.6319 83.451 58.1069 84.2094C53.675 90.6051 47.2168 90.5229 42.5788 89.3265V89.3265ZM75.5015 120.902C67.8056 122.602 65.0807 118.555 63.285 113.928C62.1261 110.941 61.5563 97.4723 61.9605 82.5979C61.9657 82.4 61.9384 82.209 61.8855 82.0291C61.8383 81.6739 61.7664 81.3227 61.6705 80.978C61.0695 78.8138 59.605 77.0034 57.848 76.2528C57.1499 75.9548 55.8688 75.4079 54.3293 75.8138C54.6576 74.4195 55.2269 72.8449 55.8443 71.14L56.1032 70.423C56.3947 69.6145 56.7608 68.7769 57.1475 67.8902C59.2385 63.1027 62.102 56.5451 58.9942 41.731C57.8301 36.1822 53.9425 33.4724 48.0494 34.102C44.5165 34.4787 41.2841 35.9479 39.6719 36.7903C39.3252 36.9712 39.0082 37.1462 38.712 37.3163C39.162 31.7257 40.8619 21.2776 47.2211 14.6671C51.2252 10.5057 56.5575 8.45031 63.0544 8.56115C75.8557 8.77699 84.0648 15.548 88.6976 21.1906C92.6899 26.0525 94.8516 30.9503 95.7143 33.592C89.2263 32.9119 84.8138 34.2318 82.5771 37.5278C77.7108 44.6974 85.2392 58.6127 88.8575 65.3005C89.5211 66.5261 90.0937 67.5854 90.2739 68.0355C91.4522 70.9786 92.9776 72.9436 94.0912 74.3777C94.4327 74.8172 94.7638 75.2435 95.0157 75.6159C93.0507 76.1998 89.5211 77.5488 89.8428 84.2921C89.5834 87.6756 87.7387 103.517 86.8014 109.114C85.5642 116.508 82.9242 119.262 75.5015 120.903V120.902ZM107.625 83.0145C105.615 83.9756 102.253 84.6965 99.0585 84.8516C95.5303 85.0218 93.7342 84.4442 93.3115 84.0889C93.1134 79.8867 94.6308 79.4477 96.2369 78.9829C96.4892 78.91 96.7354 78.8385 96.9732 78.753C97.1208 78.877 97.2826 78.9999 97.4599 79.1205C100.296 81.0495 105.353 81.2576 112.494 79.7384L112.572 79.7224C111.609 80.6504 109.961 81.8959 107.625 83.0145Z" fill="white" fill-opacity="0.7"/>
</g>
</svg>
