<svg width="128" height="116" viewBox="0 0 128 116" fill="none" xmlns="http://www.w3.org/2000/svg">
<path d="M88.6905 80.5525C93.414 80.0884 96.9975 76.2234 96.8345 71.5848C96.672 66.9467 92.5995 63.2359 87.713 63.2359H87.3875C82.3375 63.3906 78.4285 67.4104 78.5915 72.2032C78.7545 74.5225 79.7315 76.5323 81.1975 77.9238C75.6595 88.283 67.1895 95.8588 54.4845 102.198C45.8515 106.527 36.893 108.073 27.9345 106.991C20.6045 106.063 14.9035 102.971 11.3195 97.8687C6.10749 90.2929 5.61899 82.0983 10.017 73.9041C13.112 68.0287 17.998 63.6996 21.093 61.535C20.4415 59.5251 19.464 56.1238 18.9755 53.6503C-4.643 69.8844 -2.19951 91.8391 4.96749 102.198C10.3425 109.929 21.256 114.722 33.3095 114.722C36.567 114.722 39.8245 114.412 43.0825 113.64C63.932 109.774 79.732 98.0234 88.6905 80.5525V80.5525ZM117.358 61.3808C104.979 47.6202 86.736 40.0444 65.8865 40.0444H63.2805C61.8145 37.2615 58.7195 35.4058 55.299 35.4058H54.973C49.924 35.5606 46.015 39.5803 46.1775 44.3736C46.3405 49.0117 50.4125 52.7225 55.299 52.7225H55.6245C59.208 52.5678 62.303 50.4032 63.606 47.4655H66.538C78.9175 47.4655 90.645 50.8668 101.233 57.5153C109.377 62.6175 115.241 69.266 118.498 77.3054C121.267 83.7992 121.104 90.1382 118.172 95.5499C113.612 103.744 105.956 108.228 95.8575 108.228C89.342 108.228 83.1525 106.372 79.8945 104.981C78.103 106.527 74.845 109.001 72.5645 110.547C79.569 113.639 86.736 115.34 93.577 115.34C109.214 115.34 120.779 107.145 125.177 98.9512C129.9 89.9835 129.574 74.5225 117.358 61.3808V61.3808ZM34.6125 83.1803C34.7755 87.8189 38.8475 91.5292 43.734 91.5292H44.06C49.1095 91.3749 53.0185 87.3547 52.8555 82.5619C52.693 77.9233 48.6205 74.213 43.734 74.213H43.4085C43.0825 74.213 42.5935 74.213 42.2685 74.3673C35.59 63.8538 32.821 52.413 33.7985 40.044C34.4495 30.7673 37.7075 22.7273 43.4085 16.0789C48.132 10.3583 57.2535 7.57531 63.4435 7.42107C80.709 7.11164 88.0385 27.5202 88.5275 35.7148C90.645 36.1785 94.2285 37.261 96.672 38.0341C94.717 12.9875 78.4285 0 62.792 0C48.132 0 34.6125 10.0498 29.237 24.8924C21.7445 44.6825 26.631 63.6996 35.7525 78.6969C34.9385 79.779 34.4495 81.4799 34.6125 83.1808V83.1803Z" fill="#484848" fill-opacity="0.6"/>
</svg>
