<svg width="128" height="128" viewBox="0 0 128 128" fill="none" xmlns="http://www.w3.org/2000/svg">
<g id="svg-1 1">
<path id="Vector" d="M0.00109863 0.00134277H127.999V128H0.00109863V0.00134277Z" fill="#7A7A7A" fill-opacity="0.7"/>
<path id="Vector_2" d="M63.9979 64.0015H127.999V127.805H63.9979V64.0015Z" fill="#7A7A7A" fill-opacity="0.7"/>
<path id="Vector_3" d="M0.00158691 0.000732422H64.0025V64.0019H0.00158691V0.000732422Z" fill="#7A7A7A" fill-opacity="0.7"/>
<g id="Group">
<path id="Vector_4" d="M23.7103 87.4166C36.6971 87.4166 47.2251 76.8887 47.2251 63.9018C47.2251 50.915 36.6971 40.3871 23.7103 40.3871C10.7235 40.3871 0.195557 50.915 0.195557 63.9018C0.195557 76.8887 10.7235 87.4166 23.7103 87.4166Z" fill="#7A7A7A" fill-opacity="0.7"/>
<path id="Vector_5" d="M35.5394 58.8588C48.5262 58.8588 59.0542 48.3309 59.0542 35.3441C59.0542 22.3572 48.5262 11.8293 35.5394 11.8293C22.5526 11.8293 12.0247 22.3572 12.0247 35.3441C12.0247 48.3309 22.5526 58.8588 35.5394 58.8588Z" fill="#7A7A7A" fill-opacity="0.7"/>
<path id="Vector_6" d="M64.0972 47.03C77.084 47.03 87.6119 36.5021 87.6119 23.5152C87.6119 10.5284 77.084 0.000488281 64.0972 0.000488281C51.1103 0.000488281 40.5824 10.5284 40.5824 23.5152C40.5824 36.5021 51.1103 47.03 64.0972 47.03Z" fill="#7A7A7A" fill-opacity="0.7"/>
<path id="Vector_7" d="M92.6549 58.8588C105.642 58.8588 116.17 48.3309 116.17 35.3441C116.17 22.3572 105.642 11.8293 92.6549 11.8293C79.668 11.8293 69.1401 22.3572 69.1401 35.3441C69.1401 48.3309 79.668 58.8588 92.6549 58.8588Z" fill="#7A7A7A" fill-opacity="0.7"/>
<path id="Vector_8" d="M104.484 87.4166C117.471 87.4166 127.999 76.8887 127.999 63.9018C127.999 50.915 117.471 40.3871 104.484 40.3871C91.4971 40.3871 80.9692 50.915 80.9692 63.9018C80.9692 76.8887 91.4971 87.4166 104.484 87.4166Z" fill="#7A7A7A" fill-opacity="0.7"/>
<path id="Vector_9" d="M92.6549 115.975C105.642 115.975 116.17 105.447 116.17 92.4605C116.17 79.4737 105.642 68.9458 92.6549 68.9458C79.668 68.9458 69.1401 79.4737 69.1401 92.4605C69.1401 105.447 79.668 115.975 92.6549 115.975Z" fill="#7A7A7A" fill-opacity="0.7"/>
<path id="Vector_10" d="M64.0972 127.804C77.084 127.804 87.6119 117.277 87.6119 104.29C87.6119 91.3029 77.084 80.775 64.0972 80.775C51.1103 80.775 40.5824 91.3029 40.5824 104.29C40.5824 117.277 51.1103 127.804 64.0972 127.804Z" fill="#7A7A7A" fill-opacity="0.7"/>
<path id="Vector_11" d="M35.5394 115.975C48.5262 115.975 59.0542 105.447 59.0542 92.4605C59.0542 79.4737 48.5262 68.9458 35.5394 68.9458C22.5526 68.9458 12.0247 79.4737 12.0247 92.4605C12.0247 105.447 22.5526 115.975 35.5394 115.975Z" fill="#7A7A7A" fill-opacity="0.7"/>
</g>
<path id="Vector_12" d="M80.8268 23.5129C80.8268 14.2772 73.334 6.78345 64.0973 6.78345C54.8605 6.78345 47.3678 14.2762 47.3678 23.5129C40.834 16.9839 30.2414 16.9839 23.7075 23.5129C17.1785 30.0468 17.1785 40.6394 23.7075 47.1732C14.4718 47.1732 6.97803 54.666 6.97803 63.9027C6.97803 73.1384 14.4708 80.6322 23.7075 80.6322C17.1785 87.166 17.1785 97.7586 23.7075 104.292C30.2414 110.822 40.834 110.822 47.3678 104.292C47.3678 113.528 54.8603 121.022 64.0973 121.022C73.3342 121.022 80.8268 113.529 80.8268 104.292C87.3606 110.822 97.9522 110.822 104.487 104.292C111.016 97.7586 111.016 87.166 104.487 80.6322C113.723 80.6322 121.211 73.1394 121.211 63.9027C121.211 54.667 113.723 47.1732 104.487 47.1732C111.016 40.6394 111.016 30.0468 104.487 23.5129C97.9522 16.9839 87.3606 16.9839 80.8268 23.5129V23.5129Z" fill="black" fill-opacity="0.7"/>
<path id="Vector_13" d="M70.4988 29.9192V48.4436L83.5992 35.3432C83.5992 33.0285 84.4828 30.7083 86.2497 28.9416C89.7886 25.4035 95.524 25.4035 99.0573 28.9416C102.595 32.475 102.595 38.2115 99.0573 41.7494C97.2906 43.5161 94.9704 44.3999 92.6557 44.3999L79.5553 57.5003H98.0797C99.7188 55.8611 101.982 54.8452 104.486 54.8452C109.485 54.8452 113.538 58.903 113.538 63.9017C113.538 68.9007 109.485 72.9585 104.486 72.9585C101.982 72.9585 99.7188 71.9434 98.0797 70.3033H79.5553L92.6557 83.4037C94.9704 83.4037 97.2906 84.2876 99.0573 86.0542C102.595 89.5932 102.595 95.3285 99.0573 98.8621C95.524 102.401 89.7886 102.401 86.2497 98.8621C84.4828 97.0952 83.5992 94.775 83.5992 92.4605L70.4986 79.36V97.8843C72.1378 99.5233 73.1537 101.787 73.1537 104.291C73.1537 109.289 69.0951 113.343 64.0972 113.343C59.0982 113.343 55.0404 109.289 55.0404 104.291C55.0404 101.787 56.0555 99.5233 57.6956 97.8845V79.36L44.5952 92.4605C44.5952 94.775 43.7113 97.0952 41.9447 98.8621C38.4057 102.401 32.6704 102.401 29.137 98.8621C25.5981 95.3277 25.5981 89.5922 29.137 86.0542C30.9037 84.2876 33.2239 83.4037 35.5384 83.4037L48.6389 70.3033H30.1146C28.4756 71.9424 26.2126 72.9585 23.7084 72.9585C18.7096 72.9585 14.6565 68.9005 14.6565 63.9017C14.6565 58.903 18.7096 54.845 23.7084 54.845C26.2126 54.845 28.4756 55.8611 30.1146 57.5001H48.6389L35.5384 44.3999C33.2239 44.3999 30.9037 43.5169 29.137 41.7494C25.5981 38.2105 25.5981 32.475 29.137 28.9416C32.6712 25.4035 38.4057 25.4035 41.9447 28.9416C43.7113 30.7083 44.5952 33.0285 44.5952 35.3432L57.6956 48.4436V29.9192C56.0565 28.2801 55.0404 26.0172 55.0404 23.5132C55.0404 18.5142 59.0984 14.4611 64.0972 14.4611C69.0951 14.4611 73.1539 18.5142 73.1539 23.513C73.1539 26.0172 72.1378 28.2801 70.4988 29.9192V29.9192Z" fill="white" fill-opacity="0.7"/>
<path id="Vector_14" d="M6.98352 63.9995H121.205V121.015H6.98352V63.9995Z" fill="black" fill-opacity="0.7"/>
<path id="Vector_15" d="M6.98352 95.9948H121.205V121.016H6.98352V95.9948Z" fill="black" fill-opacity="0.7"/>
<path id="Vector_16" d="M18.9553 69.2881H110.165C113.902 69.2881 116.954 72.3402 116.954 76.0772V98.9764C81.7057 94.6155 46.7588 88.5876 12.1664 89.1447V76.0774C12.1664 72.3406 15.2175 69.2885 18.9553 69.2885V69.2881Z" fill="#3F3F3F" fill-opacity="0.7"/>
<path id="Vector_17" d="M78.9127 67.7476L68.3681 118.677H59.6285L49.0782 67.7476H57.8187L63.9979 97.5775L70.1731 67.7476H78.9127ZM93.8324 88.8426H108.752V103.758C108.752 111.997 102.072 118.677 93.837 118.677C85.5975 118.677 78.9173 111.997 78.9173 103.758V82.6634H78.9127C78.9127 74.4287 85.5929 67.7486 93.8324 67.7486C102.072 67.7486 108.752 74.4287 108.752 82.6634H100.012C100.012 79.2521 97.2429 76.489 93.8324 76.489C90.4211 76.489 87.658 79.2531 87.658 82.6634V103.758C87.658 107.169 90.4219 109.937 93.8324 109.937C97.2429 109.937 100.012 107.168 100.012 103.762V97.5831H93.8324V88.8426V88.8426ZM23.6137 93.2121C20.9165 90.51 19.2435 86.7824 19.2435 82.6626C19.2435 74.4231 25.9237 67.7476 34.1632 67.7476C42.3979 67.7476 49.078 74.4231 49.078 82.6626H40.3422C40.3422 79.2521 37.5735 76.4834 34.163 76.4834C30.7517 76.4834 27.984 79.2521 27.984 82.6626C27.984 84.3683 28.6735 85.9078 29.7892 87.0282H29.7938C30.3671 87.6028 31.0484 88.0584 31.7984 88.3688C32.5483 88.6792 33.3523 88.8383 34.164 88.837V88.8416C38.2837 88.8416 42.0113 90.51 44.7088 93.2121C47.4109 95.9093 49.079 99.6415 49.079 103.757C49.079 111.996 42.3989 118.676 34.164 118.676C25.9245 118.676 19.2443 111.996 19.2443 103.757H27.984C27.984 107.173 30.7527 109.936 34.1632 109.936C37.5745 109.936 40.3424 107.172 40.3424 103.757C40.3424 102.056 39.6526 100.512 38.5334 99.3911C37.4142 98.2765 35.8688 97.5813 34.1632 97.5813C30.0434 97.5823 26.3158 95.9095 23.6137 93.2121Z" fill="white" fill-opacity="0.7" stroke="black" stroke-opacity="0.7" stroke-width="3"/>
</g>
</svg>
