<svg xmlns="http://www.w3.org/2000/svg" xmlns:xlink="http://www.w3.org/1999/xlink" style="margin:auto;background:transparent;display:block;z-index:1;position:relative" width="1920" height="929" preserveAspectRatio="xMidYMid" viewBox="0 0 1920 929">
<g transform="translate(960,464.5) scale(1,1) translate(-960,-464.5)"><path id="path0" d="M 1587.9444989920048 326.32373152451316
c 0 33.906207878350244 -8.296199800021869 9.739017156547412 -18.03521695656928 9.739017156547412
S 1551.8740650788664 360.2299394028634 1551.8740650788664 326.32373152451316
s 8.296199800021869 -9.739017156547412 18.03521695656928 -9.739017156547412
S 1587.9444989920048 292.4175236461629 1587.9444989920048 326.32373152451316
z" fill="none" stroke="none"></path>
<circle cx="0" cy="0" r="15.607029612738597" fill="#8c00ff">
  <animateMotion begin="-7.772870421453433s" dur="10s" repeatCount="indefinite">
    <mpath xlink:href="#path0"></mpath>
  </animateMotion>
</circle><path id="path1" d="M 147.40678850056446 159.01806848655858
c 0 24.27688018429361 -5.940087704667585 6.9731464359141215 -12.913234140581707 6.9731464359141215
S 121.58032021940103 183.2949486708522 121.58032021940103 159.01806848655858
s 5.940087704667585 -6.9731464359141215 12.913234140581707 -6.9731464359141215
S 147.40678850056446 134.74118830226496 147.40678850056446 159.01806848655858
z" fill="none" stroke="none"></path>
<circle cx="0" cy="0" r="12.873678325010646" fill="#8c00ff">
  <animateMotion begin="-0.5390157773265369s" dur="10s" repeatCount="indefinite">
    <mpath xlink:href="#path1"></mpath>
  </animateMotion>
</circle><path id="path2" d="M 1136.0032498864668 694.9218057944075
c 0 21.574453910179624 -5.27885574398012 6.196917612498402 -11.475773356478523 6.196917612498402
S 1113.0517031735096 716.4962597045871 1113.0517031735096 694.9218057944075
s 5.27885574398012 -6.196917612498402 11.475773356478523 -6.196917612498402
S 1136.0032498864668 673.3473518842279 1136.0032498864668 694.9218057944075
z" fill="none" stroke="none"></path>
<circle cx="0" cy="0" r="23.587413162148053" fill="#8c00ff">
  <animateMotion begin="-9.126236127782622s" dur="10s" repeatCount="indefinite">
    <mpath xlink:href="#path2"></mpath>
  </animateMotion>
</circle><path id="path3" d="M 1409.474958769485 154.66915070200707
c 0 35.33649788584988 -8.64616437632497 10.149845137424967 -18.796009513749937 10.149845137424967
S 1371.8829397419854 190.00564858785697 1371.8829397419854 154.66915070200707
s 8.64616437632497 -10.149845137424967 18.796009513749937 -10.149845137424967
S 1409.474958769485 119.33265281615719 1409.474958769485 154.66915070200707
z" fill="none" stroke="none"></path>
<circle cx="0" cy="0" r="17.30614584415372" fill="#fbff12">
  <animateMotion begin="-1.2581643328046166s" dur="10s" repeatCount="indefinite">
    <mpath xlink:href="#path3"></mpath>
  </animateMotion>
</circle><path id="path4" d="M 1204.8968712606504 445.6542896580717
c 0 23.071432291931753 -5.645137688451386 6.626900764703802 -12.272038453155186 6.626900764703802
S 1180.3527943543402 468.72572195000345 1180.3527943543402 445.6542896580717
s 5.645137688451386 -6.626900764703802 12.272038453155186 -6.626900764703802
S 1204.8968712606504 422.58285736614 1204.8968712606504 445.6542896580717
z" fill="none" stroke="none"></path>
<circle cx="0" cy="0" r="16.574543531542176" fill="#ff206e">
  <animateMotion begin="-7.562452724881574s" dur="10s" repeatCount="indefinite">
    <mpath xlink:href="#path4"></mpath>
  </animateMotion>
</circle><path id="path5" d="M 1320.8062308955975 837.8055021663705
c 0 35.780601352806634 -8.754827990580345 10.277406771550842 -19.032234762131186 10.277406771550842
S 1282.7417613713353 873.5861035191772 1282.7417613713353 837.8055021663705
s 8.754827990580345 -10.277406771550842 19.032234762131186 -10.277406771550842
S 1320.8062308955975 802.0249008135638 1320.8062308955975 837.8055021663705
z" fill="none" stroke="none"></path>
<circle cx="0" cy="0" r="14.638078333596837" fill="#80ffdb">
  <animateMotion begin="-6.539565190187799s" dur="10s" repeatCount="indefinite">
    <mpath xlink:href="#path5"></mpath>
  </animateMotion>
</circle><path id="path6" d="M 1062.0448760756556 453.3008935267413
c 0 25.494626869580046 -6.238047000003627 7.322924739134693 -13.56097173913832 7.322924739134693
S 1034.922932597379 478.7955203963213 1034.922932597379 453.3008935267413
s 6.238047000003627 -7.322924739134693 13.56097173913832 -7.322924739134693
S 1062.0448760756556 427.80626665716125 1062.0448760756556 453.3008935267413
z" fill="none" stroke="none"></path>
<circle cx="0" cy="0" r="18.83068463882565" fill="#80ffdb">
  <animateMotion begin="-0.8471726134353119s" dur="10s" repeatCount="indefinite">
    <mpath xlink:href="#path6"></mpath>
  </animateMotion>
</circle><path id="path7" d="M 1634.3909641529362 153.45187189806822
c 0 20.67186624584502 -5.058009826111015 5.937663708912932 -10.995673535023947 5.937663708912932
S 1612.3996170828882 174.12373814391324 1612.3996170828882 153.45187189806822
s 5.058009826111015 -5.937663708912932 10.995673535023947 -5.937663708912932
S 1634.3909641529362 132.7800056522232 1634.3909641529362 153.45187189806822
z" fill="none" stroke="none"></path>
<circle cx="0" cy="0" r="15.385245838545181" fill="#ff206e">
  <animateMotion begin="-4.501224223175817s" dur="10s" repeatCount="indefinite">
    <mpath xlink:href="#path7"></mpath>
  </animateMotion>
</circle><path id="path8" d="M 1090.76450676752 845.5635645978205
c 0 22.492344847516154 -5.503446079711399 6.460567137052513 -11.964013216763911 6.460567137052513
S 1066.836480333992 868.0559094453366 1066.836480333992 845.5635645978205
s 5.503446079711399 -6.460567137052513 11.964013216763911 -6.460567137052513
S 1090.76450676752 823.0712197503043 1090.76450676752 845.5635645978205
z" fill="none" stroke="none"></path>
<circle cx="0" cy="0" r="15.905406005920202" fill="#ff206e">
  <animateMotion begin="-5.549907622400694s" dur="10s" repeatCount="indefinite">
    <mpath xlink:href="#path8"></mpath>
  </animateMotion>
</circle><path id="path9" d="M 592.8917038928282 893.0864775414761
c 0 29.643262001529394 -7.253138574842297 8.514553979162699 -15.767692554004995 8.514553979162699
S 561.3563187848183 922.7297395430055 561.3563187848183 893.0864775414761
s 7.253138574842297 -8.514553979162699 15.767692554004995 -8.514553979162699
S 592.8917038928282 863.4432155399468 592.8917038928282 893.0864775414761
z" fill="none" stroke="none"></path>
<circle cx="0" cy="0" r="19.4310615850521" fill="#ff206e">
  <animateMotion begin="-6.126004664482396s" dur="10s" repeatCount="indefinite">
    <mpath xlink:href="#path9"></mpath>
  </animateMotion>
</circle><path id="path10" d="M 897.7767643025645 856.3303338540768
c 0 21.339089417251362 -5.221266559540227 6.129312917721136 -11.350579477261363 6.129312917721136
S 875.0756053480418 877.6694232713281 875.0756053480418 856.3303338540768
s 5.221266559540227 -6.129312917721136 11.350579477261363 -6.129312917721136
S 897.7767643025645 834.9912444368255 897.7767643025645 856.3303338540768
z" fill="none" stroke="none"></path>
<circle cx="0" cy="0" r="15.936957172122765" fill="#fbff12">
  <animateMotion begin="-1.768023616376928s" dur="10s" repeatCount="indefinite">
    <mpath xlink:href="#path10"></mpath>
  </animateMotion>
</circle><path id="path11" d="M 1454.0558392639716 383.45737333429105
c 0 21.33101393003103 -5.219290642454401 6.126993362881254 -11.346284005335654 6.126993362881254
S 1431.3632712533001 404.78838726432207 1431.3632712533001 383.45737333429105
s 5.219290642454401 -6.126993362881254 11.346284005335654 -6.126993362881254
S 1454.0558392639716 362.12635940426003 1454.0558392639716 383.45737333429105
z" fill="none" stroke="none"></path>
<circle cx="0" cy="0" r="15.53323157830353" fill="#ff206e">
  <animateMotion begin="-8.675467332827411s" dur="10s" repeatCount="indefinite">
    <mpath xlink:href="#path11"></mpath>
  </animateMotion>
</circle><path id="path12" d="M 1508.9056226682706 592.7434497161383
c 0 28.439956355359868 -6.958712725247627 8.168923633986346 -15.127636359233971 8.168923633986346
S 1478.6503499498026 621.1834060714982 1478.6503499498026 592.7434497161383
s 6.958712725247627 -8.168923633986346 15.127636359233971 -8.168923633986346
S 1508.9056226682706 564.3034933607785 1508.9056226682706 592.7434497161383
z" fill="none" stroke="none"></path>
<circle cx="0" cy="0" r="16.58745620557581" fill="#8c00ff">
  <animateMotion begin="-1.9582895885098117s" dur="10s" repeatCount="indefinite">
    <mpath xlink:href="#path12"></mpath>
  </animateMotion>
</circle><path id="path13" d="M 1088.8918309950006 231.5114804597856
c 0 27.185118698099412 -6.651677979322196 7.808491540943448 -14.460169520265644 7.808491540943448
S 1059.9714919544692 258.696599157885 1059.9714919544692 231.5114804597856
s 6.651677979322196 -7.808491540943448 14.460169520265644 -7.808491540943448
S 1088.8918309950006 204.32636176168617 1088.8918309950006 231.5114804597856
z" fill="none" stroke="none"></path>
<circle cx="0" cy="0" r="18.522081396706376" fill="#fbff12">
  <animateMotion begin="-4.458200636119445s" dur="10s" repeatCount="indefinite">
    <mpath xlink:href="#path13"></mpath>
  </animateMotion>
</circle><path id="path14" d="M 1379.2149914632873 801.5346663587617
c 0 37.103772833009664 -9.07858271445981 10.657466664800648 -19.736049379260457 10.657466664800648
S 1339.7428927047663 838.6384391917713 1339.7428927047663 801.5346663587617
s 9.07858271445981 -10.657466664800648 19.736049379260457 -10.657466664800648
S 1379.2149914632873 764.430893525752 1379.2149914632873 801.5346663587617
z" fill="none" stroke="none"></path>
<circle cx="0" cy="0" r="18.884399066629005" fill="#fbff12">
  <animateMotion begin="-6.251095489673995s" dur="10s" repeatCount="indefinite">
    <mpath xlink:href="#path14"></mpath>
  </animateMotion>
</circle><path id="path15" d="M 1298.701026655186 74.79539167884836
c 0 23.993634583558816 -5.870782930019709 6.89178865697966 -12.76257158699937 6.89178865697966
S 1273.1758834811872 98.78902626240718 1273.1758834811872 74.79539167884836
s 5.870782930019709 -6.89178865697966 12.76257158699937 -6.89178865697966
S 1298.701026655186 50.801757095289545 1298.701026655186 74.79539167884836
z" fill="none" stroke="none"></path>
<circle cx="0" cy="0" r="24.747162225584333" fill="#8c00ff">
  <animateMotion begin="-8.511348347697385s" dur="10s" repeatCount="indefinite">
    <mpath xlink:href="#path15"></mpath>
  </animateMotion>
</circle><path id="path16" d="M 1611.0938579812387 879.0146817743777
c 0 30.40506863790611 -7.439538070977025 8.73337077897303 -16.172908849950055 8.73337077897303
S 1578.7480402813385 909.4197504122837 1578.7480402813385 879.0146817743777
s 7.439538070977025 -8.73337077897303 16.172908849950055 -8.73337077897303
S 1611.0938579812387 848.6096131364716 1611.0938579812387 879.0146817743777
z" fill="none" stroke="none"></path>
<circle cx="0" cy="0" r="16.418317770502185" fill="#ff206e">
  <animateMotion begin="-9.551417626434414s" dur="10s" repeatCount="indefinite">
    <mpath xlink:href="#path16"></mpath>
  </animateMotion>
</circle><path id="path17" d="M 740.7628806498822 555.754728104967
c 0 23.686688589000894 -5.795679122840644 6.803623318117278 -12.599302440957922 6.803623318117278
S 715.5642757679664 579.4414166939679 715.5642757679664 555.754728104967
s 5.795679122840644 -6.803623318117278 12.599302440957922 -6.803623318117278
S 740.7628806498822 532.068039515966 740.7628806498822 555.754728104967
z" fill="none" stroke="none"></path>
<circle cx="0" cy="0" r="17.015816139835994" fill="#8c00ff">
  <animateMotion begin="-2.125633717359461s" dur="10s" repeatCount="indefinite">
    <mpath xlink:href="#path17"></mpath>
  </animateMotion>
</circle><path id="path18" d="M 1887.7267216505163 183.74451731799186
c 0 34.72915768449102 -8.497559858971206 9.975396356183593 -18.4729562151548 9.975396356183593
S 1850.7808092202065 218.47367500248288 1850.7808092202065 183.74451731799186
s 8.497559858971206 -9.975396356183593 18.4729562151548 -9.975396356183593
S 1887.7267216505163 149.01535963350085 1887.7267216505163 183.74451731799186
z" fill="none" stroke="none"></path>
<circle cx="0" cy="0" r="18.407958200373084" fill="#8c00ff">
  <animateMotion begin="-6.397028524252752s" dur="10s" repeatCount="indefinite">
    <mpath xlink:href="#path18"></mpath>
  </animateMotion>
</circle><path id="path19" d="M 808.6893925103595 262.21858241852306
c 0 29.86543503399957 -7.307500061510533 8.578369637425409 -15.885869698935942 8.578369637425409
S 776.9176531124876 292.08401745252263 776.9176531124876 262.21858241852306
s 7.307500061510533 -8.578369637425409 15.885869698935942 -8.578369637425409
S 808.6893925103595 232.35314738452348 808.6893925103595 262.21858241852306
z" fill="none" stroke="none"></path>
<circle cx="0" cy="0" r="16.91315200650849" fill="#ff206e">
  <animateMotion begin="-7.67299999958775s" dur="10s" repeatCount="indefinite">
    <mpath xlink:href="#path19"></mpath>
  </animateMotion>
</circle><path id="path20" d="M 552.7296523641899 746.3747076212117
c 0 29.87378874192079 -7.309544053874236 8.58076910672193 -15.890313160596165 8.58076910672193
S 520.9490260429975 776.2484963631324 520.9490260429975 746.3747076212117
s 7.309544053874236 -8.58076910672193 15.890313160596165 -8.58076910672193
S 552.7296523641899 716.5009188792909 552.7296523641899 746.3747076212117
z" fill="none" stroke="none"></path>
<circle cx="0" cy="0" r="18.05425123839235" fill="#ff206e">
  <animateMotion begin="-3.2354185194032237s" dur="10s" repeatCount="indefinite">
    <mpath xlink:href="#path20"></mpath>
  </animateMotion>
</circle><path id="path21" d="M 717.6920551071544 889.2855633891146
c 0 25.468875052258113 -6.231746023424857 7.315527940542224 -13.547273963967081 7.315527940542224
S 690.5975071792202 914.7544384413727 690.5975071792202 889.2855633891146
s 6.231746023424857 -7.315527940542224 13.547273963967081 -7.315527940542224
S 717.6920551071544 863.8166883368565 717.6920551071544 889.2855633891146
z" fill="none" stroke="none"></path>
<circle cx="0" cy="0" r="14.258732982552846" fill="#fbff12">
  <animateMotion begin="-2.1922123963283746s" dur="10s" repeatCount="indefinite">
    <mpath xlink:href="#path21"></mpath>
  </animateMotion>
</circle><path id="path22" d="M 1021.7066235835811 451.05594899903565
c 0 26.478486279285196 -6.47877855769744 7.605522654688301 -14.084301212385741 7.605522654688301
S 993.5380211588096 477.53443527832087 993.5380211588096 451.05594899903565
s 6.47877855769744 -7.605522654688301 14.084301212385741 -7.605522654688301
S 1021.7066235835811 424.57746271975043 1021.7066235835811 451.05594899903565
z" fill="none" stroke="none"></path>
<circle cx="0" cy="0" r="24.1714503868168" fill="#8c00ff">
  <animateMotion begin="-9.472684897859482s" dur="10s" repeatCount="indefinite">
    <mpath xlink:href="#path22"></mpath>
  </animateMotion>
</circle><path id="path23" d="M 1454.2823583770046 595.7851709537235
c 0 20.491950201013687 -5.013987815141646 5.885985696035846 -10.899973511177492 5.885985696035846
S 1432.4824113546497 616.2771211547372 1432.4824113546497 595.7851709537235
s 5.013987815141646 -5.885985696035846 10.899973511177492 -5.885985696035846
S 1454.2823583770046 575.2932207527099 1454.2823583770046 595.7851709537235
z" fill="none" stroke="none"></path>
<circle cx="0" cy="0" r="24.12329047361033" fill="#80ffdb">
  <animateMotion begin="-7.3156808292749576s" dur="10s" repeatCount="indefinite">
    <mpath xlink:href="#path23"></mpath>
  </animateMotion>
</circle><path id="path24" d="M 260.6314054501652 785.0940155471794
c 0 26.97034246585594 -6.59912634802858 7.746800495511812 -14.345926843540393 7.746800495511812
S 231.9395517630844 812.0643580130354 231.9395517630844 785.0940155471794
s 6.59912634802858 -7.746800495511812 14.345926843540393 -7.746800495511812
S 260.6314054501652 758.1236730813234 260.6314054501652 785.0940155471794
z" fill="none" stroke="none"></path>
<circle cx="0" cy="0" r="19.033518814232202" fill="#ff206e">
  <animateMotion begin="-7.6551187087844745s" dur="10s" repeatCount="indefinite">
    <mpath xlink:href="#path24"></mpath>
  </animateMotion>
</circle><path id="path25" d="M 1790.264169161105 190.08274644189993
c 0 21.82803564360249 -5.340902338328268 6.269754918907098 -11.610657257235367 6.269754918907098
S 1767.0428546466344 211.91078208550243 1767.0428546466344 190.08274644189993
s 5.340902338328268 -6.269754918907098 11.610657257235367 -6.269754918907098
S 1790.264169161105 168.25471079829742 1790.264169161105 190.08274644189993
z" fill="none" stroke="none"></path>
<circle cx="0" cy="0" r="20.930701147181146" fill="#80ffdb">
  <animateMotion begin="-7.739805101774888s" dur="10s" repeatCount="indefinite">
    <mpath xlink:href="#path25"></mpath>
  </animateMotion>
</circle><path id="path26" d="M 1321.3977648254233 183.83414344476768
c 0 22.313529066688425 -5.459693282274826 6.409205157453058 -11.868898439727884 6.409205157453058
S 1297.6599679459675 206.1476725114561 1297.6599679459675 183.83414344476768
s 5.459693282274826 -6.409205157453058 11.868898439727884 -6.409205157453058
S 1321.3977648254233 161.52061437807924 1321.3977648254233 183.83414344476768
z" fill="none" stroke="none"></path>
<circle cx="0" cy="0" r="19.645684074442993" fill="#8c00ff">
  <animateMotion begin="-1.671275693905372s" dur="10s" repeatCount="indefinite">
    <mpath xlink:href="#path26"></mpath>
  </animateMotion>
</circle><path id="path27" d="M 825.0008569605436 785.9106075501428
c 0 18.92578149740751 -4.630776323833752 5.436128727978753 -10.066905051812505 5.436128727978753
S 804.8670468569187 804.8363890475503 804.8670468569187 785.9106075501428
s 4.630776323833752 -5.436128727978753 10.066905051812505 -5.436128727978753
S 825.0008569605436 766.9848260527353 825.0008569605436 785.9106075501428
z" fill="none" stroke="none"></path>
<circle cx="0" cy="0" r="17.250865560623943" fill="#fbff12">
  <animateMotion begin="-3.3430467645885464s" dur="10s" repeatCount="indefinite">
    <mpath xlink:href="#path27"></mpath>
  </animateMotion>
</circle><path id="path28" d="M 157.51307430448952 895.2922448105568
c 0 37.47684345072229 -9.169865950708644 10.764625246484062 -19.934491197192706 10.764625246484062
S 117.64409191010412 932.7690882612791 117.64409191010412 895.2922448105568
s 9.169865950708644 -10.764625246484062 19.934491197192706 -10.764625246484062
S 157.51307430448952 857.8154013598345 157.51307430448952 895.2922448105568
z" fill="none" stroke="none"></path>
<circle cx="0" cy="0" r="13.000216112856661" fill="#8c00ff">
  <animateMotion begin="-3.5131713147002452s" dur="10s" repeatCount="indefinite">
    <mpath xlink:href="#path28"></mpath>
  </animateMotion>
</circle><path id="path29" d="M 1739.5389409940353 532.3536724595846
c 0 31.84933162424316 -7.7929215676339645 9.148212275048568 -16.941133842682532 9.148212275048568
S 1705.6566733086702 564.2030040838278 1705.6566733086702 532.3536724595846
s 7.7929215676339645 -9.148212275048568 16.941133842682532 -9.148212275048568
S 1739.5389409940353 500.5043408353414 1739.5389409940353 532.3536724595846
z" fill="none" stroke="none"></path>
<circle cx="0" cy="0" r="14.702894255007903" fill="#fbff12">
  <animateMotion begin="-8.649843527861638s" dur="10s" repeatCount="indefinite">
    <mpath xlink:href="#path29"></mpath>
  </animateMotion>
</circle><path id="path30" d="M 228.22863503446223 486.24120264277275
c 0 19.014189712511122 -4.652408121146338 5.461522576997876 -10.113930698144213 5.461522576997876
S 208.00077363817383 505.25539235528385 208.00077363817383 486.24120264277275
s 4.652408121146338 -5.461522576997876 10.113930698144213 -5.461522576997876
S 228.22863503446223 467.22701293026165 228.22863503446223 486.24120264277275
z" fill="none" stroke="none"></path>
<circle cx="0" cy="0" r="17.116332924154484" fill="#80ffdb">
  <animateMotion begin="-2.1995218342574474s" dur="10s" repeatCount="indefinite">
    <mpath xlink:href="#path30"></mpath>
  </animateMotion>
</circle></g>
</svg>