<svg xmlns="http://www.w3.org/2000/svg" xmlns:xlink="http://www.w3.org/1999/xlink" style="margin:auto;background:#fff7f4;display:block;z-index:1;position:relative" width="1920" height="520" preserveAspectRatio="xMidYMid" viewBox="0 0 1920 520">
<g transform="translate(960,260) scale(1,1) translate(-960,-260)"><g transform="translate(1023.2407865500415,-409.0176402132697) scale(100)" opacity="0.33">
  <path d="M6.451199999999999 0 C6.451199999999999 1.8144 6.959678341968685 1.9230835073735142 6.052478341968685 3.4943999999999997 S4.796916492626486 4.679703084894169 3.2256000000000005 5.586903084894169 S1.8144000000000005 6.9888 4.279405774940511e-16 6.9888 S-1.6542835073735127 6.49410308489417 -3.2255999999999982 5.58690308489417 S-5.145278341968684 5.065716492626487 -6.052478341968684 3.4944000000000024 S-6.451199999999999 1.814400000000001 -6.451199999999999 7.900441430659404e-16 S-6.959678341968686 -1.9230835073735126 -6.052478341968686 -3.4943999999999984 S-4.796916492626488 -4.679703084894168 -3.2256000000000022 -5.5869030848941685 S-1.8144000000000013 -6.9888 -1.2838217324821533e-15 -6.9888 S1.654283507373509 -6.494103084894171 3.225599999999995 -5.586903084894172 S5.145278341968683 -5.065716492626488 6.052478341968683 -3.4944000000000033 S6.451199999999998 -1.8144000000000016 6.451199999999999 -1.5800882861318808e-15" fill="#8c00ff" stroke-width="0">
    <animateTransform attributeName="transform" type="rotate" dur="50s" repeatCount="indefinite" values="0;60"></animateTransform>
  </path>
</g><g transform="translate(1035.88894386005,-542.8211682559237) scale(100)" opacity="0.33">
  <path d="M7.74144 0 C7.74144 2.17728 8.351614010362423 2.3077002088482166 7.262974010362424 4.19328 S5.7562997911517835 5.6156437018730045 3.870720000000001 6.704283701873004 S2.1772800000000005 8.386560000000001 5.135286929928614e-16 8.386560000000001 S-1.9851402088482153 7.792923701873005 -3.870719999999998 6.704283701873005 S-6.17433401036242 6.078859791151785 -7.262974010362421 4.193280000000003 S-7.74144 2.177280000000001 -7.74144 9.480529716791286e-16 S-8.351614010362423 -2.307700208848215 -7.2629740103624245 -4.193279999999998 S-5.756299791151786 -5.615643701873003 -3.8707200000000035 -6.7042837018730035 S-2.1772800000000014 -8.386560000000001 -1.540586078978584e-15 -8.386560000000001 S1.985140208848211 -7.792923701873006 3.8707199999999946 -6.704283701873008 S6.174334010362419 -6.078859791151786 7.26297401036242 -4.193280000000004 S7.741439999999999 -2.177280000000002 7.74144 -1.8961059433582573e-15" fill="#0087ff" stroke-width="0">
    <animateTransform attributeName="transform" type="rotate" dur="25s" repeatCount="indefinite" values="0;60"></animateTransform>
  </path>
</g><g transform="translate(1066.24452140407,-863.949635558293) scale(100)" opacity="0.33">
  <path d="M10.838015999999998 0 C10.838015999999998 3.048192 11.69225961450739 3.230780292387503 10.16816361450739 5.8705919999999985 S8.058819707612495 7.861901182622205 5.419008 9.385997182622205 S3.0481920000000007 11.741183999999999 7.189401701900058e-16 11.741183999999999 S-2.7791962923875007 10.910093182622205 -5.419007999999996 9.385997182622205 S-8.644067614507385 8.510403707612497 -10.168163614507387 5.870592000000003 S-10.838015999999998 3.048192000000001 -10.838015999999998 1.3272741603507798e-15 S-11.692259614507389 -3.2307802923874998 -10.16816361450739 -5.870591999999996 S-8.058819707612498 -7.861901182622202 -5.419008000000003 -9.385997182622203 S-3.048192000000002 -11.741183999999999 -2.1568205105700172e-15 -11.741183999999999 S2.7791962923874953 -10.910093182622207 5.419007999999992 -9.385997182622209 S8.644067614507385 -8.5104037076125 10.168163614507387 -5.870592000000005 S10.838015999999998 -3.0481920000000025 10.838015999999998 -2.6545483207015597e-15" fill="#009234" stroke-width="0">
    <animateTransform attributeName="transform" type="rotate" dur="16.666666666666668s" repeatCount="indefinite" values="0;60"></animateTransform>
  </path>
</g><g transform="translate(1129.9912342465118,-1538.319416893269) scale(100)" opacity="0.33">
  <path d="M17.3408256 0 C17.3408256 4.8771072 18.707615383211824 5.169248467820005 16.269061783211825 9.392947199999998 S12.894111532179995 12.579041892195528 8.670412800000001 15.017595492195529 S4.877107200000001 18.7858944 1.1503042723040093e-15 18.7858944 S-4.446714067820002 17.45614909219553 -8.670412799999996 15.01759549219553 S-13.830508183211819 13.616645932179999 -16.26906178321182 9.392947200000007 S-17.3408256 4.877107200000002 -17.3408256 2.123638656561248e-15 S-18.707615383211827 -5.169248467820001 -16.26906178321183 -9.392947199999995 S-12.894111532179998 -12.579041892195525 -8.670412800000006 -15.017595492195527 S-4.877107200000004 -18.7858944 -3.450912816912028e-15 -18.7858944 S4.4467140678199915 -17.45614909219553 8.670412799999987 -15.017595492195536 S13.830508183211819 -13.61664593218 16.26906178321182 -9.392947200000009 S17.3408256 -4.877107200000005 17.3408256 -4.247277313122496e-15" fill="#9a7800" stroke-width="0">
    <animateTransform attributeName="transform" type="rotate" dur="12.5s" repeatCount="indefinite" values="0;60"></animateTransform>
  </path>
</g><g transform="translate(1265.9842216437212,-2976.974950407884) scale(100)" opacity="0.33">
  <path d="M31.213486079999996 0 C31.213486079999996 8.778792959999999 33.67370768978128 9.304647242076008 29.284311209781283 16.907304959999994 S23.209400757923987 22.64227540595195 15.606743040000001 27.03167188595195 S8.77879296 33.814609919999995 2.0705476901472165e-15 33.814609919999995 S-8.004085322076005 31.421068365951953 -15.60674303999999 27.031671885951955 S-24.894914729781274 24.509962677923994 -29.284311209781276 16.90730496000001 S-31.213486079999996 8.778792960000002 -31.213486079999996 3.822549581810246e-15 S-33.67370768978128 -9.304647242076 -29.284311209781286 -16.907304959999987 S-23.209400757923998 -22.642275405951946 -15.606743040000012 -27.031671885951948 S-8.778792960000004 -33.814609919999995 -6.21164307044165e-15 -33.814609919999995 S8.004085322075987 -31.421068365951953 15.606743039999976 -27.031671885951962 S24.89491472978127 -24.509962677923994 29.284311209781272 -16.907304960000012 S31.213486079999992 -8.778792960000006 31.213486079999996 -7.645099163620493e-15" fill="#ff206e" stroke-width="0">
    <animateTransform attributeName="transform" type="rotate" dur="10s" repeatCount="indefinite" values="0;60"></animateTransform>
  </path>
</g></g>
</svg>