<svg width="83" height="129" viewBox="0 0 83 129" fill="none" xmlns="http://www.w3.org/2000/svg">
<path d="M20.6667 129C31.9827 129 41.1667 119.368 41.1667 107.5V86.0002H20.6667C9.35069 86.0002 0.166687 95.6322 0.166687 107.5C0.166687 119.368 9.35069 129 20.6667 129Z" fill="black" fill-opacity="0.5"/>
<path d="M0.166687 64.4993C0.166687 52.6314 9.35069 42.9994 20.6667 42.9994H41.1667V85.9993H20.6667C9.35069 85.9993 0.166687 76.3673 0.166687 64.4993Z" fill="black" fill-opacity="0.6"/>
<path d="M0.166687 21.4999C0.166687 9.63198 9.35069 0 20.6667 0H41.1667V42.9999H20.6667C9.35069 42.9999 0.166687 33.3679 0.166687 21.4999Z" fill="black" fill-opacity="0.65"/>
<path d="M41.1667 0H61.6667C72.9827 0 82.1667 9.63198 82.1667 21.4999C82.1667 33.3679 72.9827 42.9999 61.6667 42.9999H41.1667V0Z" fill="black" fill-opacity="0.5"/>
<path d="M82.1667 64.4993C82.1667 76.3673 72.9827 85.9993 61.6667 85.9993C50.3507 85.9993 41.1667 76.3673 41.1667 64.4993C41.1667 52.6314 50.3507 42.9994 61.6667 42.9994C72.9827 42.9994 82.1667 52.6314 82.1667 64.4993Z" fill="black" fill-opacity="0.75"/>
</svg>
