<svg width="128" height="128" viewBox="0 0 128 128" fill="none" xmlns="http://www.w3.org/2000/svg">
<path d="M0 0H128V128H0V0Z" fill="black" fill-opacity="0.58"/>
<path d="M117.524 97.4723C116.587 91.632 112.779 86.7286 101.5 82.1537C97.5818 80.3529 93.2138 79.0633 91.9119 76.0943C91.4495 74.3666 91.3887 73.3932 91.6807 72.3468C92.5202 68.9521 96.5719 67.8936 99.7841 68.867C101.853 69.5605 103.811 71.1545 104.992 73.6974C110.516 70.1203 110.503 70.1445 114.361 67.6869C112.949 65.4967 112.195 64.4867 111.27 63.55C107.948 59.8389 103.422 57.9287 96.1826 58.0747C94.9293 58.2329 93.6641 58.4031 92.4107 58.5614C88.7972 59.4739 85.3537 61.372 83.3339 63.915C77.2746 70.7895 79.0024 82.8229 86.3757 87.7751C93.6396 93.226 104.31 94.4671 105.673 99.5652C106.999 105.807 101.086 107.827 95.2092 107.109C90.8776 106.209 88.4686 104.006 85.8647 100.003C81.0709 102.777 81.0709 102.777 76.1432 105.612C77.3112 108.167 78.54 109.323 80.4991 111.538C89.7705 120.943 112.973 120.481 117.135 106.245C117.305 105.758 118.425 102.497 117.524 97.4723V97.4723ZM69.5849 58.8289H57.6123C57.6123 69.1711 57.5637 79.4403 57.5637 89.7825C57.5637 96.3651 57.9044 102.4 56.8337 104.249C55.0816 107.887 50.5432 107.437 48.4748 106.731C46.3698 105.697 45.2991 104.225 44.058 102.145C43.7173 101.548 43.4618 101.086 43.3765 101.049C40.128 103.033 36.8914 105.028 33.6427 107.011C35.2611 110.333 37.6457 113.217 40.6997 115.09C45.2625 117.828 51.3948 118.668 57.8071 117.195C61.9804 115.979 65.5818 113.46 67.4678 109.627C70.1932 104.602 69.6092 98.5187 69.5849 91.7902C69.6457 80.8152 69.5849 69.8403 69.5849 58.8289Z" fill="black" fill-opacity="0.33"/>
</svg>
