<svg width="129" height="73" viewBox="0 0 129 73" fill="none" xmlns="http://www.w3.org/2000/svg">
<g id="mysql">
<path id="Vector" fill-rule="evenodd" clip-rule="evenodd" d="M0.294922 66.1191H4.55193V47.9584L11.1162 63.7961C11.8955 65.6955 12.9363 66.3644 15.0156 66.3644C17.0957 66.3644 18.1357 65.6955 18.915 63.7961L25.4793 47.9584V66.1191H29.7036V47.9931C29.7036 46.234 29.0532 45.3876 27.7211 44.9301C24.5041 43.8392 22.3265 44.7897 21.352 47.1482L14.918 62.7398L8.67929 47.1482C7.73685 44.7897 5.52714 43.8392 2.31017 44.9301C0.945308 45.3876 0.29565 46.2332 0.29565 47.9931V66.1191H0.294922V66.1191ZM33.2454 51.336H37.4696V61.3318C37.4376 61.8942 37.632 63.1619 39.9721 63.1973C41.1418 63.2313 49.103 63.1973 49.1678 63.1973V51.3005H53.4248C53.4569 51.3005 53.4248 67.5247 53.4248 67.5957C53.4569 71.6076 48.843 72.4516 46.7309 72.5226H33.343V69.4258C33.343 69.4258 46.6988 69.4613 46.7309 69.4258C49.4606 69.1442 49.1358 67.6667 49.1358 67.1737V65.9763H40.1345C35.9423 65.9069 33.2774 63.9349 33.2454 61.6473C33.2454 61.4367 33.343 51.4425 33.2454 51.336V51.336ZM124.525 39.8273C121.927 39.7571 119.943 40.0032 118.221 40.8125C117.734 41.0239 116.986 41.0239 116.889 41.6928C117.15 41.9729 117.214 42.4312 117.409 42.8193C117.831 43.5237 118.514 44.4726 119.131 44.9656C119.782 45.5296 120.464 46.092 121.179 46.585C122.479 47.4291 123.908 47.8866 125.11 48.733C125.858 49.2244 126.572 49.8594 127.288 50.4218C127.612 50.7034 127.872 51.1262 128.295 51.3013V51.2319C128.068 50.9148 128.002 50.4573 127.807 50.1039L126.832 49.0485C125.891 47.7115 124.688 46.514 123.42 45.5296C122.412 44.755 120.138 43.6641 119.715 42.3973C119.683 42.3618 119.65 42.3618 119.65 42.3263C120.365 42.2198 121.211 41.9397 121.86 41.7623C122.966 41.4467 123.972 41.5162 125.109 41.1998C125.63 41.0232 126.149 40.8827 126.67 40.7068V40.3897C126.085 39.7563 125.696 38.8768 125.046 38.3136C123.389 36.7652 121.568 35.2514 119.716 33.9846C118.676 33.2455 117.409 32.788 116.305 32.1901C115.946 32.0142 115.296 31.9085 115.037 31.5567C114.451 30.7821 114.16 29.7613 113.705 28.8463C112.751 26.8389 111.863 24.7963 111.04 22.722C110.488 21.3495 110.097 19.9769 109.416 18.7093C106.036 12.7262 102.429 9.10165 96.8077 5.54649C95.6059 4.80737 94.1763 4.49106 92.6482 4.10376C91.8362 4.03276 91.0241 3.99805 90.2113 3.92706C89.7233 3.71566 89.204 3.04754 88.7161 2.73044C86.864 1.46361 82.0869 -1.31694 80.7214 2.34313C79.8437 4.63068 82.0214 6.88352 82.8007 8.04543C83.3542 8.85475 84.0352 9.77055 84.4263 10.6848C84.6848 11.2827 84.7176 11.8814 84.9456 12.5148C85.4976 14.0987 85.9528 15.8231 86.6353 17.2658C86.9921 18.0049 87.3818 18.7795 87.837 19.4484C88.097 19.8357 88.585 20.0117 88.6491 20.6451C88.1939 21.3487 88.1626 22.4049 87.9025 23.2844C86.7649 27.2616 87.1873 32.1538 88.877 35.1095C89.3978 35.989 90.5995 37.9247 92.2899 37.1864C93.7524 36.5175 93.4268 34.5462 93.8492 32.7517C93.9476 32.3644 93.882 32.0828 94.0765 31.8012V31.8714C94.4989 32.8566 94.9541 33.8071 95.4093 34.7569C96.3838 36.482 98.139 38.312 99.6342 39.5078C100.381 40.1413 100.998 41.233 102.006 41.584V41.513H101.909C101.714 41.1975 101.421 41.0563 101.194 40.8094C100.609 40.176 99.9591 39.4014 99.4711 38.6977C98.1397 36.7265 96.9373 34.5447 95.8324 32.2918C95.3117 31.2009 94.8565 30.0043 94.4355 28.9134C94.2717 28.4913 94.2717 27.8579 93.9148 27.611C93.4268 28.4204 92.7458 29.0893 92.354 30.0398C91.7692 31.5535 91.6723 33.4182 91.4778 35.3193C91.3467 35.3895 91.3795 35.354 91.314 35.425C90.2754 35.1434 89.9171 33.9815 89.5274 32.9962C88.5857 30.4973 88.3898 26.4854 89.2346 23.5992C89.4619 22.86 90.4706 20.537 90.0482 19.8334C89.8515 19.1645 89.2346 18.7425 88.8778 18.2148C88.4226 17.5813 88.0001 16.7365 87.676 15.9974C86.8967 14.0262 86.5384 11.8443 85.6928 9.87389C85.2704 8.92337 84.6215 7.97286 84.0687 7.16354C83.4511 6.21303 82.7686 5.54491 82.2821 4.41849C82.1197 4.03118 81.8925 3.39777 82.1197 2.97497C82.2166 2.69336 82.3149 2.58766 82.5735 2.48196C82.9959 2.13015 84.1991 2.62316 84.6528 2.79828C85.8232 3.36149 86.8305 3.85449 87.8377 4.5936C88.3257 4.94541 88.8137 5.61353 89.3985 5.79023H90.0489C91.0889 6.03633 92.2579 5.86043 93.2324 6.17753C94.9548 6.73995 96.5141 7.62026 97.9125 8.60627C102.202 11.5272 105.679 15.6803 108.083 20.6427C108.473 21.452 108.635 22.1911 108.961 23.0359C109.644 24.7611 110.52 26.5201 111.203 28.1742C111.853 29.8639 112.536 31.5535 113.477 32.9252C113.998 33.6644 115.947 34.0517 116.825 34.4382C117.442 34.7198 118.449 35.0361 119.035 35.4242C120.172 36.1278 121.244 37.0081 122.317 37.8174C122.835 38.2087 124.46 39.0882 124.525 39.8273V39.8273Z" fill="#303030" fill-opacity="0.7"/>
<path id="Vector_2" fill-rule="evenodd" clip-rule="evenodd" d="M91.382 9.24365C90.9332 9.2438 90.4862 9.30314 90.0507 9.42034V9.49055H90.1475C90.4075 10.0538 90.8627 10.4411 91.1875 10.9333C91.4148 11.4965 91.6755 12.0597 91.9028 12.6229L91.9996 12.5172C92.4548 12.2009 92.65 11.6377 92.65 10.7582C92.4876 10.5468 92.4548 10.3007 92.2931 10.0538C92.0652 9.70116 91.6755 9.52526 91.382 9.24365Z" fill="#303030" fill-opacity="0.7"/>
<path id="Vector_3" fill-rule="evenodd" clip-rule="evenodd" d="M56.7095 66.1189H68.8949C70.3246 66.1189 71.7215 65.8018 72.8264 65.2378C74.6457 64.3244 75.5561 63.0915 75.5561 61.4729V58.0944C75.5561 56.7929 74.5161 55.526 72.5351 54.7159C71.4622 54.2584 70.1622 54.047 68.8949 54.047H63.761C62.0386 54.047 61.2265 53.483 61.0313 52.2525C60.9985 52.1121 60.9985 51.9709 60.9985 51.8305V49.7535C60.9985 49.6131 60.9985 49.5074 61.0313 49.367C61.2265 48.4165 61.681 48.1349 63.1762 47.9945C63.3058 47.9945 63.4682 47.959 63.5986 47.959H75.7193V44.8976H63.7938C62.0713 44.8976 61.1937 45.038 60.3816 45.2842C57.8471 46.1637 56.7422 47.5015 56.7422 49.86V52.5349C56.7422 54.6118 58.9192 56.3708 62.5265 56.7929C62.949 56.7929 63.3386 56.8284 63.761 56.8284H68.1484C68.3108 56.8284 68.4725 56.8284 68.6021 56.8639C69.9677 57.0043 70.5198 57.2504 70.9422 57.7773C71.1695 58.0589 71.2678 58.3058 71.2678 58.6229V61.2977C71.2678 61.6148 71.0726 62.0376 70.6502 62.3887C70.2918 62.7413 69.6742 62.9527 68.8622 63.0221C68.6997 63.0221 68.5708 63.0576 68.407 63.0576H56.7095V66.1189ZM102.008 60.7677C102.008 63.9355 104.153 65.6946 108.54 66.0472C108.93 66.0827 109.352 66.1181 109.742 66.1181H120.79V63.0552H109.676C107.174 63.0552 106.232 62.3863 106.232 60.7677V44.8961H102.007V60.7677H102.008ZM78.2538 60.9436V50.0344C78.2538 47.2538 80.0404 45.565 83.6149 45.0365C83.9733 44.9655 84.3957 44.9655 84.7526 44.9655H92.8107C93.2003 44.9655 93.5586 44.9655 93.9811 45.0365C97.5229 45.565 99.3422 47.2538 99.3422 50.0344V60.9436C99.3422 63.1972 98.5629 64.393 96.8077 65.1676L101 69.2505H96.0611L92.681 65.977L89.2681 66.1884H84.7518C83.9725 66.1884 83.1597 66.0834 82.2493 65.8018C79.5538 65.0264 78.2538 63.478 78.2538 60.9436V60.9436ZM82.8356 60.6635C82.8356 60.8394 82.8684 60.9791 82.9012 61.1565C83.1612 62.4226 84.2653 63.127 85.9222 63.127H89.7903L86.2485 59.6775H91.1872L94.2738 62.6695C94.8274 62.3524 95.217 61.8594 95.3466 61.226C95.3794 61.0501 95.3794 60.9104 95.3794 60.7685V50.2813C95.3794 50.1748 95.3794 50.0351 95.3466 49.8932C95.0866 48.6973 93.9825 48.0292 92.3569 48.0292H85.923C84.0381 48.0292 82.8364 48.9087 82.8364 50.2813V60.6635H82.8356V60.6635ZM122.741 66.1189H123.358V63.5845H124.203V63.056H121.896V63.5845H122.741V66.1189ZM127.485 66.1189H128.037V63.056H127.192L126.446 65.1684L125.699 63.056H124.822V66.1189H125.406V63.7959L126.219 66.1189H126.641L127.453 63.7959H127.486V66.1189H127.485Z" fill="#7A7A7A" fill-opacity="0.7"/>
</g>
</svg>
