<svg width="128" height="70" viewBox="0 0 128 70" fill="none" xmlns="http://www.w3.org/2000/svg">
<path d="M64 70C99.3462 70 128 54.33 128 35C128 15.67 99.3462 0 64 0C28.6538 0 0 15.67 0 35C0 54.33 28.6538 70 64 70Z" fill="#C0C0C0" fill-opacity="0.62"/>
<path fill-rule="evenodd" clip-rule="evenodd" d="M17.9725 55.7238L24.9865 18.4209H41.205C48.2185 18.8816 51.7255 22.5655 51.7255 29.0134C51.7255 40.066 43.397 46.5134 35.9445 46.0527H28.055L26.3015 55.7238H17.9725ZM29.808 39.1451L32 25.329H37.6985C40.767 25.329 42.9585 26.7105 42.9585 29.4735C42.5205 37.3029 39.0135 38.6845 35.0685 39.1451H29.8085H29.808ZM50.096 46.0527L57.1095 8.75037H65.4385L63.685 18.4209H71.575C78.589 18.8816 81.219 22.5655 80.3425 27.1712L77.274 46.0527H68.507L71.5755 29.0134C72.0135 26.7105 72.0135 25.329 68.9455 25.329H62.37L58.425 46.0527H50.096V46.0527ZM76.7125 55.7238L83.726 18.4209H99.945C106.959 18.8816 110.466 22.5655 110.466 29.0134C110.466 40.066 102.137 46.5134 94.685 46.0527H86.7945L85.041 55.7238H76.7125V55.7238ZM88.5475 39.1451L90.7395 25.329H96.4385C99.507 25.329 101.699 26.7105 101.699 29.4735C101.261 37.3029 97.7535 38.6845 93.8085 39.1451H88.548H88.5475Z" fill="#373737" fill-opacity="0.6"/>
</svg>
