<svg width="129" height="128" viewBox="0 0 129 128" fill="none" xmlns="http://www.w3.org/2000/svg">
<path d="M63.7226 0C31.1342 0 33.1689 14.0634 33.1689 14.0634L33.2051 28.6335H64.3036V33.0078H20.8533C20.8533 33.0078 0 30.6543 0 63.3755C0 96.0977 18.2013 94.9372 18.2013 94.9372H29.0637V79.7528C29.0637 79.7528 28.4781 61.6403 46.9745 61.6403H77.8186C77.8186 61.6403 95.1478 61.9189 95.1478 44.9738V16.9561C95.1478 16.9561 97.7797 0 63.7226 0ZM46.5749 9.7981C47.3097 9.79744 48.0375 9.94099 48.7166 10.2205C49.3957 10.5001 50.0127 10.9102 50.5323 11.4273C51.0519 11.9444 51.464 12.5584 51.7449 13.2341C52.0259 13.9099 52.1701 14.6341 52.1694 15.3654C52.1701 16.0967 52.0259 16.821 51.7449 17.4967C51.464 18.1725 51.0519 18.7865 50.5323 19.3036C50.0127 19.8207 49.3957 20.2308 48.7166 20.5103C48.0375 20.7899 47.3097 20.9334 46.5749 20.9328C45.84 20.9334 45.1122 20.7899 44.4331 20.5103C43.7541 20.2308 43.137 19.8207 42.6174 19.3036C42.0978 18.7865 41.6857 18.1725 41.4048 17.4967C41.1239 16.821 40.9796 16.0967 40.9803 15.3654C40.9796 14.6341 41.1239 13.9099 41.4048 13.2341C41.6857 12.5584 42.0978 11.9444 42.6174 11.4273C43.137 10.9102 43.7541 10.5001 44.4331 10.2205C45.1122 9.94099 45.84 9.79744 46.5749 9.7981V9.7981Z" fill="url(#paint0_linear)"/>
<path d="M64.6479 127.08C97.2363 127.08 95.2015 113.017 95.2015 113.017L95.1653 98.4471H64.0663V94.0727H107.517C107.517 94.0727 128.37 96.4262 128.37 63.7041C128.37 30.9824 110.169 32.1429 110.169 32.1429H99.3062V47.3267C99.3062 47.3267 99.8918 65.4393 81.3955 65.4393H50.5514C50.5514 65.4393 33.2222 65.1607 33.2222 82.1062V110.124C33.2222 110.124 30.5908 127.08 64.6474 127.08H64.6479ZM81.7956 117.283C81.0607 117.284 80.333 117.14 79.6539 116.86C78.9748 116.581 78.3578 116.171 77.8382 115.654C77.3185 115.137 76.9065 114.523 76.6255 113.847C76.3446 113.171 76.2004 112.447 76.201 111.716C76.2003 110.984 76.3445 110.26 76.6254 109.584C76.9063 108.908 77.3184 108.294 77.838 107.777C78.3576 107.26 78.9747 106.85 79.6538 106.57C80.3329 106.291 81.0607 106.147 81.7956 106.148C82.5305 106.147 83.2583 106.291 83.9374 106.57C84.6164 106.85 85.2334 107.26 85.7531 107.777C86.2727 108.294 86.6848 108.908 86.9657 109.584C87.2466 110.26 87.3909 110.984 87.3902 111.715C87.3909 112.446 87.2466 113.171 86.9657 113.846C86.6848 114.522 86.2727 115.136 85.7531 115.653C85.2334 116.17 84.6164 116.58 83.9374 116.86C83.2583 117.14 82.5305 117.283 81.7956 117.282V117.283Z" fill="url(#paint1_linear)"/>
<defs>
<linearGradient id="paint0_linear" x1="12.3363" y1="11.4301" x2="75.6449" y2="74.4141" gradientUnits="userSpaceOnUse">
<stop stop-color="#DCDCDC" stop-opacity="0.5"/>
<stop offset="1" stop-opacity="0.63"/>
</linearGradient>
<linearGradient id="paint1_linear" x1="51.3839" y1="51.676" x2="119.385" y2="116.275" gradientUnits="userSpaceOnUse">
<stop stop-opacity="0.5"/>
<stop offset="1" stop-color="white"/>
</linearGradient>
</defs>
</svg>
