<svg width="128" height="114" viewBox="0 0 128 114" fill="none" xmlns="http://www.w3.org/2000/svg">
<path d="M128 57.013C128 48.5328 117.381 40.4962 101.101 35.5125C104.858 18.9174 103.188 5.71435 95.8304 1.4873C94.1345 0.495765 92.1516 0.0260925 89.9861 0.0260925V5.84482C91.1863 5.84482 92.1517 6.07965 92.9605 6.52323C96.5088 8.55848 98.0481 16.3081 96.8479 26.2756C96.561 28.7283 96.0913 31.3115 95.5173 33.9469C90.4036 32.6944 84.8202 31.729 78.9499 31.1028C75.4276 26.2756 71.775 21.892 68.0962 18.0563C76.6017 10.1501 84.5854 5.81872 90.0122 5.81872V0C82.8373 0 73.4448 5.11422 63.9478 13.9858C54.4509 5.1664 45.0583 0.104372 37.8834 0.104372V5.92309C43.2841 5.92309 51.2939 10.2284 59.7994 18.0824C56.1468 21.9181 52.4941 26.2756 49.0241 31.1028C43.1276 31.729 37.5442 32.6944 32.4305 33.973C31.8304 31.3637 31.3869 28.8327 31.0738 26.406C29.8475 16.4385 31.3608 8.68894 34.883 6.6276C35.6657 6.15793 36.6832 5.94919 37.8834 5.94919V0.130465C35.6918 0.130465 33.7089 0.600137 31.987 1.59167C24.6555 5.81872 23.0118 18.9956 26.7949 35.5386C10.5667 40.5484 0 48.5589 0 57.013C0 65.4932 10.6188 73.5299 26.8993 78.5136C23.1423 95.1087 24.8121 108.312 32.1696 112.539C33.8655 113.53 35.8484 114 38.04 114C45.2148 114 54.6074 108.886 64.1044 100.014C73.6013 108.834 82.9939 113.896 90.1688 113.896C92.3604 113.896 94.3433 113.426 96.0652 112.434C103.397 108.207 105.04 95.0304 101.257 78.4875C117.433 73.5038 128 65.4672 128 57.013V57.013ZM94.0302 39.6091C93.0648 42.975 91.8647 46.4454 90.5079 49.9158C89.4382 47.8283 88.3163 45.7409 87.0901 43.6535C85.8899 41.566 84.6115 39.5308 83.3331 37.5477C87.0379 38.0957 90.6123 38.7741 94.0302 39.6091ZM82.0807 67.398C80.0457 70.9206 77.9584 74.2605 75.7929 77.3655C71.9054 77.7047 67.9658 77.8874 64 77.8874C60.0603 77.8874 56.1207 77.7047 52.2593 77.3916C50.0938 74.2866 47.9804 70.9728 45.9454 67.4763C43.9625 64.0581 42.1623 60.5878 40.5186 57.0913C42.1362 53.5949 43.9625 50.0984 45.9193 46.6802C47.9543 43.1577 50.0416 39.8178 52.2071 36.7127C56.0946 36.3735 60.0342 36.1909 64 36.1909C67.9397 36.1909 71.8793 36.3735 75.7407 36.6867C77.9062 39.7917 80.0196 43.1055 82.0546 46.602C84.0375 50.0201 85.8378 53.4905 87.4815 56.9869C85.8378 60.4834 84.0375 63.9799 82.0807 67.398ZM90.5079 64.0059C91.9168 67.5024 93.117 70.9989 94.1084 74.3909C90.6906 75.2259 87.0901 75.9304 83.3592 76.4784C84.6376 74.4692 85.916 72.4079 87.1162 70.2943C88.3164 68.2069 89.4382 66.0934 90.5079 64.0059ZM64.0522 91.8471C61.6258 89.3422 59.1993 86.5502 56.799 83.4974C59.1472 83.6017 61.5475 83.68 63.9739 83.68C66.4264 83.68 68.8528 83.6278 71.2271 83.4974C68.8789 86.5502 66.4525 89.3422 64.0522 91.8471ZM44.6408 76.4784C40.936 75.9304 37.3616 75.252 33.9437 74.417C34.9091 71.051 36.1093 67.5807 37.466 64.1103C38.5357 66.1978 39.6576 68.2852 40.8838 70.3726C42.1101 72.4601 43.3624 74.4953 44.6408 76.4784ZM63.9217 22.179C66.3482 24.6839 68.7746 27.4759 71.1749 30.5287C68.8267 30.4244 66.4264 30.3461 64 30.3461C61.5475 30.3461 59.1211 30.3983 56.7468 30.5287C59.095 27.4759 61.5214 24.6839 63.9217 22.179ZM44.6148 37.5477C43.3363 39.5569 42.0579 41.6182 40.8577 43.7317C39.6576 45.8192 38.5357 47.9066 37.466 49.994C36.0571 46.4976 34.8569 43.0011 33.8655 39.6091C37.2833 38.8002 40.8838 38.0957 44.6148 37.5477V37.5477ZM21.0029 70.2161C11.7668 66.276 5.79209 61.1096 5.79209 57.013C5.79209 52.9165 11.7668 47.724 21.0029 43.81C23.2466 42.8446 25.6991 41.9835 28.2299 41.1746C29.7171 46.2889 31.6739 51.6118 34.1003 57.0652C31.7 62.4926 29.7693 67.7894 28.3082 72.8775C25.7252 72.0687 23.2727 71.1815 21.0029 70.2161ZM35.0395 107.503C31.4912 105.468 29.9519 97.718 31.1521 87.7505C31.4391 85.2978 31.9087 82.7146 32.4827 80.0792C37.5964 81.3316 43.1798 82.2971 49.0501 82.9233C52.5724 87.7505 56.225 92.1341 59.9038 95.9698C51.3983 103.876 43.4146 108.207 37.9878 108.207C36.8137 108.181 35.8223 107.946 35.0395 107.503V107.503ZM96.9262 87.62C98.1525 97.5875 96.6392 105.337 93.117 107.398C92.3343 107.868 91.3168 108.077 90.1166 108.077C84.7159 108.077 76.7061 103.772 68.2006 95.9176C71.8533 92.0819 75.5059 87.7244 78.976 82.8972C84.8724 82.271 90.4558 81.3056 95.5695 80.027C96.1696 82.6624 96.6392 85.1934 96.9262 87.62V87.62ZM106.971 70.2161C104.727 71.1815 102.275 72.0426 99.744 72.8515C98.2568 67.7372 96.3 62.4143 93.8736 56.9609C96.274 51.5335 98.2047 46.2367 99.6657 41.1485C102.249 41.9574 104.701 42.8446 106.997 43.81C116.233 47.7501 122.208 52.9165 122.208 57.013C122.182 61.1096 116.207 66.3021 106.971 70.2161V70.2161Z" fill="#4D4D4D" fill-opacity="0.6"/>
<path d="M63.9739 68.9374C70.559 68.9374 75.8973 63.5986 75.8973 57.0129C75.8973 50.4272 70.559 45.0885 63.9739 45.0885C57.3888 45.0885 52.0506 50.4272 52.0506 57.0129C52.0506 63.5986 57.3888 68.9374 63.9739 68.9374Z" fill="#4D4D4D" fill-opacity="0.6"/>
</svg>
